<svg width="198" height="62" viewBox="0 0 198 62" fill="none" xmlns="http://www.w3.org/2000/svg">
<path d="M55.7186 6.86951H7.33203V55.176H55.7186V6.86951Z" fill="#ED1A3A"/>
<path d="M47.9049 11.6818C46.7929 11.6818 45.9508 12.4183 45.5313 13.3034L39.4388 23.317C39.0163 24.2431 38.708 25.2835 38.708 25.9722C38.708 26.5877 38.7925 27.1314 39.0184 27.6326L45.6089 43.3508H20.0166C19.0954 43.3508 18.3351 42.427 18.3351 41.5742V14.4986C18.1414 10.7971 12.8127 10.7991 12.6953 14.6148L12.8117 43.3508C12.8117 46.4749 15.2309 48.9778 18.3351 48.9778H53.2277L44.7228 27.2514C44.4881 26.4425 44.3835 25.709 44.9557 24.7448L50.5825 15.6097C50.6617 15.4193 50.7765 14.6138 50.7765 14.3823C50.665 12.7235 49.3631 11.6085 47.9049 11.6818ZM34.0901 11.6947C32.7214 11.7039 31.3543 12.6478 31.3543 14.4986V33.8733C31.3543 36.6868 27.5643 36.4553 27.5643 33.8733V14.4986C27.5643 10.7971 22.0798 10.7971 22.0798 14.4986V34.0284C22.0798 38.4948 25.4203 41.4643 29.4076 41.4643C33.5034 41.4643 36.8324 38.4948 36.8324 34.0284V14.4986C36.8324 12.6112 35.4588 11.6856 34.0901 11.6947Z" fill="white"/>
<path d="M65.1995 12.5463V25.327C65.1995 28.5215 64.8738 30.2975 62.2685 30.2975C61.7815 30.2975 61.4558 30.2975 60.9688 30.1216V35.6225C61.9428 35.9801 62.5942 35.9801 63.4098 35.9801C70.7329 35.9801 71.0586 30.4762 71.0586 27.2789V18.0501H75.2893V35.6225H81.1455V12.5463H65.1995Z" fill="black"/>
<path d="M83.0977 12.5463L91.0721 29.2336L88.144 35.6225H94.4902L103.929 12.5463H97.5825L94.1645 22.3084L90.0951 12.5463H83.0977Z" fill="black"/>
<path d="M105.719 35.6225H111.578V25.6816L117.598 35.6225H125.083L116.786 23.7298L124.921 12.5463H117.924L111.578 22.3084V12.5463H105.719V35.6225Z" fill="black"/>
<path d="M134.685 36.3347C142.495 36.3347 146.075 30.2974 146.075 24.0844C146.075 18.0501 142.495 12.0129 134.685 12.0129C127.036 12.0129 123.457 18.0501 123.457 24.0844C123.457 30.2974 127.036 36.3347 134.685 36.3347ZM134.685 30.8308C132.08 30.8308 129.477 28.5214 129.477 24.0844C129.477 19.6473 132.08 17.5167 134.685 17.5167C137.452 17.5167 140.054 19.6473 140.054 24.0844C140.054 28.5214 137.452 30.8308 134.685 30.8308Z" fill="black"/>
<path d="M149.006 12.5463V35.6225H154.701L162.836 21.7779V35.6225H168.534V12.5463H162.836L154.701 26.3938V12.5463H149.006ZM158.931 11.3037C161.372 11.3037 163.813 10.4157 164.955 7.75167L161.537 6.33322C161.047 8.10922 159.583 8.28506 158.931 8.28506C158.444 8.28506 156.816 8.10922 156.49 6.33322L153.075 7.75167C154.049 10.4157 156.655 11.3037 158.931 11.3037Z" fill="black"/>
<path d="M174.718 12.5463V25.327C174.718 28.5215 174.389 30.2975 171.787 30.2975C171.3 30.2975 170.974 30.2975 170.484 30.1216V35.6225C171.461 35.9801 172.113 35.9801 172.925 35.9801C180.249 35.9801 180.574 30.4762 180.574 27.2789V18.0501H184.805V35.6225H190.664V12.5463H174.718Z" fill="black"/>
<path d="M61.0137 48.5732H61.8381V44.2915H66.6527V48.5732H67.4771V40.1797H66.6527V43.6174H61.8381V40.1797H61.0137V48.5732Z" fill="black"/>
<path d="M69.5742 48.5732H74.0896V47.8992H70.3987V44.2094H73.9429V43.5354H70.3987V40.8567H74.0896V40.1797H69.5742V48.5732Z" fill="black"/>
<path d="M79.5256 48.5732H80.3412V47.4185H80.6845C83.4013 47.4185 84.525 45.8125 84.525 44.1303C84.525 42.1609 83.0669 40.8567 80.6845 40.8567H80.3412V39.8485H79.5256V40.8567H79.1941C76.797 40.8567 75.3418 42.1609 75.3418 44.1303C75.3418 45.8125 76.4655 47.4185 79.1941 47.4185H79.5256V48.5732ZM80.3412 41.5308C83.0669 41.5659 83.6654 42.8378 83.6654 44.1303C83.6654 46.1466 82.3246 46.6712 80.3412 46.7415V41.5308ZM79.5256 46.7415C77.5423 46.6712 76.2014 46.1466 76.2014 44.1303C76.2014 42.8378 76.797 41.5659 79.5256 41.5308V46.7415Z" fill="black"/>
<path d="M87.5023 48.5732H88.2944V40.8567H90.5301V40.1797H85.2695V40.8567H87.5023V48.5732Z" fill="black"/>
<path d="M91.5031 48.5732H92.4303L94.6659 44.8864H95.3759V48.5732H96.2033V40.1797H94.264C91.7203 40.1797 91.3535 41.8649 91.3535 42.6093C91.3535 44.0277 92.4655 44.8864 93.774 44.8395L91.5031 48.5732ZM95.3759 44.2094H94.1848C93.51 44.2094 92.1691 44.1303 92.1691 42.5272C92.1691 40.971 93.5892 40.8567 94.264 40.8567H95.3759V44.2094Z" fill="black"/>
<path d="M98.3145 48.5732H99.1389V44.2915H103.953V48.5732H104.778V40.1797H103.953V43.6174H99.1389V40.1797H98.3145V48.5732Z" fill="black"/>
<path d="M105.98 48.5732H106.808L107.964 45.8477H111.505L112.664 48.5732H113.488L109.718 39.9629L105.98 48.5732ZM108.263 45.1853L109.718 41.7506L111.209 45.1853H108.263Z" fill="black"/>
<path d="M114.441 48.5732H115.368L117.603 44.8864H118.313V48.5732H119.138V40.1797H117.201C114.658 40.1797 114.291 41.8649 114.291 42.6093C114.291 44.0277 115.403 44.8864 116.709 44.8395L114.441 48.5732ZM118.313 44.2094H117.122C116.445 44.2094 115.104 44.1303 115.104 42.5272C115.104 40.971 116.527 40.8567 117.201 40.8567H118.313V44.2094Z" fill="black"/>
<path d="M124.035 48.5732H124.86V44.5084L128.63 48.5732H129.706L125.637 44.2446L129.639 40.1797H128.63L124.86 44.0952V40.1797H124.035V48.5732Z" fill="black"/>
<path d="M135.025 48.837C137.525 48.837 139.576 47.0405 139.576 44.3941C139.576 41.7506 137.525 39.9629 135.025 39.9629C132.561 39.9629 130.51 41.7506 130.51 44.3941C130.51 47.0405 132.561 48.837 135.025 48.837ZM135.025 48.1278C132.974 48.1278 131.369 46.5921 131.369 44.3941C131.369 42.196 132.974 40.6281 135.025 40.6281C137.079 40.6281 138.716 42.196 138.716 44.3941C138.716 46.5921 137.079 48.1278 135.025 48.1278Z" fill="black"/>
<path d="M140.713 48.5732H141.505L142.283 42.3777L145.378 48.9513L148.438 42.3777L149.265 48.5732H150.008L148.852 39.8485L145.378 47.3482L141.869 39.8485L140.713 48.5732Z" fill="black"/>
<path d="M151.555 40.1797V48.5732H152.379V40.8567H157.194V48.5732H158.018V40.1797H151.555Z" fill="black"/>
<path d="M159.227 48.5732H160.051L161.207 45.8477H164.751L165.907 48.5732H166.732L162.961 39.9629L159.227 48.5732ZM161.506 45.1853L162.961 41.7506L164.452 45.1853H161.506Z" fill="black"/>
<path d="M167.902 48.5732H168.727V44.2915H173.541V48.5732H174.369V40.1797H173.541V43.6174H168.727V40.1797H167.902V48.5732Z" fill="black"/>
<path d="M176.463 40.1797V48.9513L182.219 41.9323V48.5732H183.032V39.8485L177.29 46.8206V40.1797H176.463Z" fill="black"/>
<path d="M184.888 48.5732H185.815L188.051 44.8864H188.761V48.5732H189.588V40.1797H187.652C185.105 40.1797 184.738 41.8649 184.738 42.6093C184.738 44.0277 185.85 44.8864 187.159 44.8395L184.888 48.5732ZM188.761 44.2094H187.57C186.895 44.2094 185.554 44.1303 185.554 42.5272C185.554 40.971 186.974 40.8567 187.652 40.8567H188.761V44.2094Z" fill="black"/>
</svg>
