<svg xmlns="http://www.w3.org/2000/svg" version="1.1" xmlns:xlink="http://www.w3.org/1999/xlink" xmlns:svgjs="http://svgjs.dev/svgjs" width="16" height="16"><svg width="16" height="16" viewBox="0 0 16 16" fill="none" xmlns="http://www.w3.org/2000/svg">
<g clip-path="url(#clip0_582_7116)">
<path fill-rule="evenodd" clip-rule="evenodd" d="M13.9765 8.00825C13.9765 8.03299 13.9765 8.05773 13.9765 8.09072C13.9765 11.6206 11.4694 14.6392 8.09341 15.4144C8.07686 15.4144 8.06031 15.4144 8.04376 15.4144C4.6678 14.6392 2.16064 11.6206 2.16064 8.09072C2.16064 4.56083 2.16064 8.04124 2.16064 8.00825V2.28454C2.16064 2.28454 2.16064 2.27629 2.16892 2.27629H2.18547L8.02721 0.585571C8.05204 0.585571 8.06859 0.585571 8.09341 0.585571L13.9352 2.27629H13.9517C13.9517 2.27629 13.96 2.27629 13.96 2.28454V8.00825H13.9765Z" fill="white"></path>
<path fill-rule="evenodd" clip-rule="evenodd" d="M8.06029 0.956705L2.52469 2.56495C2.52469 4.30516 2.54124 6.06186 2.52469 7.80206C2.52469 7.98351 2.52469 8.1567 2.52469 8.33815C2.64053 11.5629 4.95738 14.2928 8.06029 15.0351C11.1632 14.2928 13.48 11.5629 13.5959 8.33815C13.5959 8.1567 13.5959 7.98351 13.5959 7.80206C13.5793 6.06186 13.5959 4.30516 13.5959 2.56495L8.06029 0.956705ZM8.03546 15.4144C4.74224 14.6557 2.26819 11.7608 2.15234 8.33815C2.15234 8.16495 2.15234 7.98351 2.15234 7.81031V2.29279C2.30128 2.2433 2.54124 2.16908 2.59089 2.16083L8.02719 0.585571C8.05201 0.585571 8.06856 0.585571 8.09338 0.585571L13.5297 2.16083C13.5711 2.17732 13.8193 2.2433 13.9682 2.29279V7.81031C13.9682 7.98351 13.9682 8.16495 13.9682 8.33815C13.8524 11.7608 11.3866 14.6639 8.08511 15.4144C8.06856 15.4144 8.05201 15.4144 8.03546 15.4144Z" fill="#E1110E"></path>
<path fill-rule="evenodd" clip-rule="evenodd" d="M13.2729 2.81235L8.06828 1.33606L2.86366 2.81235H2.83057V7.99173C2.83057 8.01647 2.83057 8.04121 2.83057 8.06595C2.83057 8.0907 2.83057 8.11544 2.83057 8.14018C2.83057 8.19792 2.83057 8.2639 2.83057 8.32163C2.94641 11.4144 5.13913 13.9711 8.06001 14.6474C11.0388 13.9629 13.2646 11.3154 13.2977 8.14018C13.2977 8.11544 13.2977 8.0907 13.2977 8.06595C13.2977 8.04121 13.2977 8.01647 13.2977 7.99173V2.81235H13.2646H13.2729Z" fill="white"></path>
<path fill-rule="evenodd" clip-rule="evenodd" d="M8.06047 1.33606L2.82275 2.81235V7.61235C2.82275 7.83503 2.82275 8.06595 2.82275 8.29688C2.93032 11.3979 5.13132 13.9629 8.05219 14.6392C10.9813 13.9629 13.1823 11.3897 13.2816 8.29688C13.2816 8.0742 13.2816 7.83503 13.2816 7.61235V2.81235L8.04392 1.33606H8.06047ZM8.06047 14.2598C5.33818 13.5917 3.30267 11.1917 3.1951 8.30513C3.1951 8.0742 3.1951 7.84328 3.1951 7.6206V3.10101L8.06047 1.71544L12.9258 3.10101V7.6206C12.9258 7.85152 12.9258 8.08245 12.9258 8.30513C12.8183 11.1917 10.7828 13.5917 8.06047 14.2598Z" fill="#E1110E"></path>
<path fill-rule="evenodd" clip-rule="evenodd" d="M4.15468 10.8701C3.74096 10.0618 3.50928 9.14638 3.50928 8.18143C3.50928 7.21648 3.50928 8.1402 3.50928 8.11545V7.90102C3.55892 7.90102 3.6003 7.90102 3.64994 7.90927C4.22915 7.9505 4.83319 7.99174 5.36275 8.17318C5.53651 8.23091 5.57788 8.2639 5.61098 8.33813C5.6358 8.39586 5.6358 8.41236 5.62753 8.47009C5.59443 8.61854 5.0235 10.7216 5.00695 10.7629C4.96558 10.8536 4.9242 10.8618 4.6346 10.8783L4.15468 10.8618V10.8701Z" fill="#E1110E"></path>
<path fill-rule="evenodd" clip-rule="evenodd" d="M11.9329 10.9526L11.5109 10.9856C11.2379 10.9938 11.213 10.9856 11.1386 10.9196C11.0889 10.8701 10.1953 8.66805 10.187 8.58558C10.187 8.5196 10.2201 8.43713 10.2698 8.40414C10.7993 8.04125 11.9164 7.95053 12.6031 7.91754V8.12373C12.6031 8.14847 12.6031 8.16496 12.6031 8.18971C12.6031 9.18764 12.3549 10.1361 11.9164 10.9608L11.9329 10.9526Z" fill="#E1110E"></path>
<path fill-rule="evenodd" clip-rule="evenodd" d="M5.85931 8.75051C5.85931 8.77525 5.74347 9.19587 5.61108 9.67422L5.37939 10.5485L5.50351 10.6722C5.68555 10.8619 6.091 11.233 6.36405 11.4639C6.96809 11.9753 7.91137 12.668 8.02721 12.6845C8.18443 12.7093 8.32509 12.5608 8.28372 12.4041C8.27544 12.3546 8.2258 12.3051 7.91137 12.0082C7.67969 11.7938 7.54729 11.6618 7.54729 11.6371C7.54729 11.6041 7.58867 11.5546 7.62176 11.5546C7.63004 11.5546 7.8369 11.7361 8.08513 11.9588C8.55677 12.3959 8.57332 12.4124 8.70571 12.3876C8.88775 12.3629 8.99532 12.1567 8.91257 11.9918C8.9043 11.967 8.72226 11.7773 8.50713 11.5711C8.28372 11.3567 8.1265 11.1917 8.1265 11.1753C8.1265 11.1423 8.16788 11.0928 8.20097 11.0928C8.21752 11.0928 8.42438 11.2907 8.67262 11.5299C8.92085 11.7691 9.14426 11.9753 9.17736 12C9.23528 12.033 9.3594 12.0412 9.42559 12.0082C9.51661 11.967 9.59935 11.8433 9.59935 11.7361C9.59935 11.6289 9.55798 11.5876 9.06979 11.1423C8.80501 10.9031 8.58987 10.6969 8.58987 10.6887C8.58987 10.6639 8.63952 10.6062 8.67262 10.6062C8.68089 10.6062 8.9374 10.8289 9.23528 11.0928C9.62418 11.4474 9.79794 11.5876 9.84759 11.6124C10.0213 11.6866 10.2199 11.5381 10.2117 11.3484C10.2117 11.2577 10.162 11.1917 10.0131 11.0598C9.93861 10.9938 9.49178 10.6144 9.02842 10.2186C8.68089 9.92165 8.41611 9.66597 8.29199 9.55051C8.25062 9.50927 8.2258 9.48453 8.21752 9.48453C8.18443 9.47628 7.99411 9.5835 7.87827 9.64948C7.82862 9.68247 7.71278 9.78968 7.63831 9.86391C7.62176 9.88041 7.60522 9.8969 7.58867 9.9134C7.39835 10.0866 7.22459 10.1113 7.02601 10.1113C6.69503 10.1196 6.47162 9.80618 6.57091 9.4433C6.62056 9.2536 6.71158 9.01443 6.91016 8.7835L7.01773 8.65979L5.85931 8.70103L5.84276 8.75051H5.85931Z" fill="#E1110E"></path>
<path fill-rule="evenodd" clip-rule="evenodd" d="M8.08479 8.19793C7.96068 8.22267 7.75382 8.32164 7.58005 8.44535C7.34009 8.61855 7.01739 9.00617 6.90155 9.26184C6.83536 9.40205 6.80226 9.64947 6.87673 9.78968C7.03394 9.96288 7.307 9.83916 7.55523 9.60824C7.78691 9.3938 8.10962 9.20411 8.25856 9.21236C8.27511 9.21236 8.45714 9.36906 8.83777 9.69071C8.96188 9.79793 9.11082 9.92164 9.28458 10.0701C9.82242 10.5319 10.2775 10.9196 10.3023 10.9361C10.3354 10.9608 10.3437 10.9608 10.4182 10.9278C10.4844 10.9031 10.5257 10.8701 10.6085 10.7794C10.6664 10.7216 10.7161 10.6557 10.7161 10.6392C10.7161 10.6227 10.5423 10.1938 10.3354 9.69071L9.95481 8.767L9.18529 8.48659C8.7633 8.33813 8.3744 8.19793 8.31648 8.18968C8.21718 8.17318 8.17581 8.17318 8.08479 8.18968V8.19793Z" fill="#E1110E"></path>
<path fill-rule="evenodd" clip-rule="evenodd" d="M8.06017 7.31546C8.2753 7.31546 8.49044 7.27422 8.68902 7.19999C9.20204 7.00205 9.59094 6.58143 9.71505 6.07009C9.75642 5.8969 9.77297 5.63298 9.75642 5.45154C9.71505 5.11339 9.59094 4.7835 9.39235 4.48659C9.31788 4.37113 8.17601 2.8371 8.13464 2.79587C8.11809 2.77937 8.08499 2.76288 8.06017 2.76288C8.03534 2.76288 8.00224 2.77937 7.9857 2.79587C7.94432 2.8371 6.80245 4.37113 6.72798 4.48659C6.5294 4.7835 6.40528 5.12164 6.36391 5.45154C6.33908 5.63298 6.36391 5.88865 6.40528 6.07009C6.53767 6.58143 6.91829 7.00205 7.43131 7.19999C7.6299 7.27422 7.84503 7.31546 8.06017 7.31546ZM9.28478 5.79793C9.28478 5.84741 9.26823 5.91339 9.25996 5.96288C9.17721 6.27628 8.9538 6.54844 8.65592 6.70514C8.58973 6.73813 8.57318 6.74638 8.54836 6.73814C8.50698 6.73814 8.47389 6.70515 8.45734 6.67216C8.43251 6.60618 8.45734 6.56494 8.55663 6.50721C8.73867 6.41649 8.89588 6.25154 8.97863 6.07834C9.01173 6.01236 9.0531 5.88865 9.06137 5.81442C9.07792 5.7237 9.10274 5.69071 9.17721 5.69071C9.25168 5.69071 9.26823 5.73195 9.27651 5.78968L9.28478 5.79793Z" fill="#000404"></path>
</g>
<defs>
<clipPath id="SvgjsClipPath1031">
<rect width="16" height="16" fill="white"></rect>
</clipPath>
</defs>
</svg><style>@media (prefers-color-scheme: light) { :root { filter: none; } }
@media (prefers-color-scheme: dark) { :root { filter: none; } }
</style></svg>