<svg width="177" height="46" viewBox="0 0 177 46" fill="none" xmlns="http://www.w3.org/2000/svg">
<g clip-path="url(#clip0_2003_1831)">
<path fill-rule="evenodd" clip-rule="evenodd" d="M36.1836 23.0237C36.1836 23.0948 36.1836 23.1659 36.1836 23.2608C36.1836 33.4092 28.9755 42.0876 19.2696 44.3165C19.222 44.3165 19.1744 44.3165 19.1269 44.3165C9.42095 42.0876 2.21289 33.4092 2.21289 23.2608C2.21289 13.1123 2.21289 23.1185 2.21289 23.0237V6.56801C2.21289 6.56801 2.21289 6.5443 2.23668 6.5443H2.28426L19.0793 1.68348C19.1506 1.68348 19.1982 1.68348 19.2696 1.68348L36.0646 6.5443H36.1122C36.1122 6.5443 36.136 6.5443 36.136 6.56801V23.0237H36.1836Z" fill="white"/>
<path fill-rule="evenodd" clip-rule="evenodd" d="M19.1728 2.7505L3.258 7.37421C3.258 12.3773 3.30558 17.4278 3.258 22.4309C3.258 22.9526 3.258 23.4505 3.258 23.9721C3.59105 33.2433 10.252 41.0917 19.1728 43.2258C28.0937 41.0917 34.7546 33.2433 35.0877 23.9721C35.0877 23.4505 35.0877 22.9526 35.0877 22.4309C35.0401 17.4278 35.0877 12.3773 35.0877 7.37421L19.1728 2.7505ZM19.1015 44.3165C9.63345 42.135 2.52055 33.8124 2.1875 23.9721C2.1875 23.4742 2.1875 22.9526 2.1875 22.4546V6.59173C2.6157 6.44947 3.30558 6.23607 3.44832 6.21236L19.0777 1.68349C19.149 1.68349 19.1966 1.68349 19.268 1.68349L34.8974 6.21236C35.0163 6.25978 35.73 6.44947 36.1582 6.59173V22.4546C36.1582 22.9526 36.1582 23.4742 36.1582 23.9721C35.8251 33.8124 28.736 42.1588 19.2442 44.3165C19.1966 44.3165 19.149 44.3165 19.1015 44.3165Z" fill="#E1110E"/>
<path fill-rule="evenodd" clip-rule="evenodd" d="M34.1604 8.08555L19.1971 3.84122L4.23383 8.08555H4.13867V22.9763C4.13867 23.0474 4.13867 23.1185 4.13867 23.1897C4.13867 23.2608 4.13867 23.3319 4.13867 23.4031C4.13867 23.569 4.13867 23.7587 4.13867 23.9247C4.47172 32.8165 10.7758 40.167 19.1733 42.1113C27.7373 40.1433 34.1366 32.5319 34.2317 23.4031C34.2317 23.3319 34.2317 23.2608 34.2317 23.1897C34.2317 23.1185 34.2317 23.0474 34.2317 22.9763V8.08555H34.1366H34.1604Z" fill="white"/>
<path fill-rule="evenodd" clip-rule="evenodd" d="M19.1737 3.84122L4.11523 8.08555V21.8855C4.11523 22.5257 4.11523 23.1897 4.11523 23.8536C4.42449 32.769 10.7524 40.1433 19.1499 42.0876C27.5712 40.1433 33.899 32.7453 34.1845 23.8536C34.1845 23.2134 34.1845 22.5257 34.1845 21.8855V8.08555L19.1261 3.84122H19.1737ZM19.1737 40.9969C11.3471 39.0763 5.495 32.1763 5.18574 23.8773C5.18574 23.2134 5.18574 22.5495 5.18574 21.9093V8.91544L19.1737 4.93193L33.1616 8.91544V21.9093C33.1616 22.5732 33.1616 23.2371 33.1616 23.8773C32.8523 32.1763 27.0002 39.0763 19.1737 40.9969Z" fill="#E1110E"/>
<path fill-rule="evenodd" clip-rule="evenodd" d="M7.94538 31.2516C6.75593 28.9278 6.08984 26.2959 6.08984 23.5217C6.08984 20.7474 6.08984 23.4031 6.08984 23.332V22.7155C6.23258 22.7155 6.35152 22.7155 6.49426 22.7392C8.15948 22.8577 9.89608 22.9763 11.4186 23.4979C11.9181 23.6639 12.0371 23.7588 12.1322 23.9722C12.2036 24.1381 12.2036 24.1856 12.1798 24.3516C12.0847 24.7784 10.4432 30.8247 10.3956 30.9433C10.2767 31.2041 10.1578 31.2278 9.32514 31.2753L7.94538 31.2278V31.2516Z" fill="#E1110E"/>
<path fill-rule="evenodd" clip-rule="evenodd" d="M30.3066 31.4887L29.0933 31.5835C28.3083 31.6072 28.2369 31.5835 28.0228 31.3938C27.8801 31.2516 25.3109 24.9206 25.2871 24.6835C25.2871 24.4938 25.3823 24.2567 25.525 24.1619C27.0475 23.1186 30.259 22.8577 32.2335 22.7629V23.3557C32.2335 23.4268 32.2335 23.4742 32.2335 23.5454C32.2335 26.4144 31.5198 29.1412 30.259 31.5124L30.3066 31.4887Z" fill="#E1110E"/>
<path fill-rule="evenodd" clip-rule="evenodd" d="M12.8446 25.1577C12.8446 25.2288 12.5116 26.4381 12.1309 27.8134L11.4648 30.3268L11.8217 30.6825C12.345 31.2278 13.5107 32.2948 14.2957 32.9587C16.0323 34.4288 18.7443 36.4206 19.0773 36.468C19.5293 36.5392 19.9337 36.1124 19.8148 35.6618C19.791 35.5196 19.6483 35.3773 18.7443 34.5237C18.0782 33.9072 17.6976 33.5278 17.6976 33.4567C17.6976 33.3618 17.8165 33.2196 17.9117 33.2196C17.9354 33.2196 18.5302 33.7412 19.2438 34.3814C20.5998 35.6381 20.6474 35.6856 21.028 35.6144C21.5514 35.5433 21.8606 34.9505 21.6227 34.4763C21.5989 34.4051 21.0756 33.8598 20.4571 33.267C19.8148 32.6505 19.3628 32.1763 19.3628 32.1288C19.3628 32.034 19.4817 31.8917 19.5769 31.8917C19.6245 31.8917 20.2192 32.4608 20.9329 33.1484C21.6465 33.8361 22.2888 34.4288 22.384 34.5C22.5505 34.5948 22.9073 34.6185 23.0977 34.5237C23.3593 34.4051 23.5972 34.0495 23.5972 33.7412C23.5972 33.433 23.4783 33.3144 22.0747 32.034C21.3135 31.3464 20.695 30.7536 20.695 30.7299C20.695 30.6587 20.8377 30.4928 20.9329 30.4928C20.9566 30.4928 21.6941 31.133 22.5505 31.8917C23.6686 32.9113 24.1682 33.3144 24.3109 33.3855C24.8105 33.5989 25.3814 33.1721 25.3576 32.6268C25.3576 32.366 25.2149 32.1763 24.7867 31.7969C24.5726 31.6072 23.288 30.5165 21.9558 29.3783C20.9566 28.5247 20.1954 27.7897 19.8386 27.4577C19.7196 27.3392 19.6483 27.268 19.6245 27.268C19.5293 27.2443 18.9822 27.5526 18.6491 27.7422C18.5064 27.8371 18.1733 28.1453 17.9592 28.3587C17.9117 28.4062 17.8641 28.4536 17.8165 28.501C17.2694 28.999 16.7698 29.0701 16.1989 29.0701C15.2473 29.0938 14.605 28.1928 14.8905 27.1495C15.0332 26.6041 15.2949 25.9165 15.8658 25.2526L16.1751 24.8969L12.8446 25.0154L12.797 25.1577H12.8446Z" fill="#E1110E"/>
<path fill-rule="evenodd" clip-rule="evenodd" d="M19.2438 23.5691C18.887 23.6402 18.2923 23.9247 17.7927 24.2804C17.1028 24.7783 16.175 25.8928 15.842 26.6278C15.6517 27.0309 15.5565 27.7422 15.7706 28.1453C16.2226 28.6433 17.0076 28.2876 17.7213 27.6237C18.3874 27.0072 19.3152 26.4618 19.7434 26.4855C19.791 26.4855 20.3143 26.9361 21.4086 27.8608C21.7654 28.169 22.1936 28.5247 22.6932 28.9515C24.2395 30.2794 25.5479 31.3938 25.6193 31.4412C25.7144 31.5123 25.7382 31.5123 25.9523 31.4175C26.1426 31.3464 26.2616 31.2515 26.4994 30.9907C26.666 30.8247 26.8087 30.635 26.8087 30.5876C26.8087 30.5402 26.3091 29.3072 25.7144 27.8608L24.6201 25.2051L22.4077 24.3989C21.1945 23.9721 20.0764 23.569 19.9099 23.5453C19.6244 23.4979 19.5055 23.4979 19.2438 23.5453V23.5691Z" fill="#E1110E"/>
<path fill-rule="evenodd" clip-rule="evenodd" d="M19.1728 21.032C19.7913 21.032 20.4098 20.9134 20.9808 20.7C22.4557 20.1309 23.5738 18.9216 23.9306 17.4515C24.0495 16.9536 24.0971 16.1949 24.0495 15.6732C23.9306 14.701 23.5738 13.7526 23.0028 12.899C22.7887 12.567 19.5058 8.15671 19.3869 8.03815C19.3393 7.99073 19.2442 7.94331 19.1728 7.94331C19.1014 7.94331 19.0063 7.99073 18.9587 8.03815C18.8397 8.15671 15.5569 12.567 15.3428 12.899C14.7718 13.7526 14.415 14.7248 14.2961 15.6732C14.2247 16.1949 14.2961 16.9299 14.415 17.4515C14.7956 18.9216 15.8899 20.1309 17.3648 20.7C17.9358 20.9134 18.5543 21.032 19.1728 21.032ZM22.6936 16.6691C22.6936 16.8113 22.646 17.001 22.6222 17.1433C22.3843 18.0443 21.742 18.8268 20.8856 19.2773C20.6953 19.3722 20.6477 19.3959 20.5763 19.3722C20.4574 19.3722 20.3622 19.2773 20.3147 19.1825C20.2433 18.9928 20.3147 18.8742 20.6001 18.7083C21.1235 18.4474 21.5755 17.9732 21.8134 17.4753C21.9085 17.2856 22.0275 16.9299 22.0513 16.7165C22.0988 16.4557 22.1702 16.3608 22.3843 16.3608C22.5984 16.3608 22.646 16.4794 22.6698 16.6454L22.6936 16.6691Z" fill="#000404"/>
<path fill-rule="evenodd" clip-rule="evenodd" d="M90.2297 31.1567C90.1346 30.9907 90.0156 30.8722 89.8491 30.7773C89.6826 30.6825 89.5161 30.6588 89.3257 30.6588C89.1354 30.6588 88.9451 30.7062 88.8024 30.7773C88.6359 30.8722 88.5169 30.9907 88.4455 31.1567C88.3504 31.3227 88.3028 31.5124 88.3028 31.7258C88.3028 31.9392 88.3504 32.1526 88.4455 32.2948C88.5407 32.4608 88.6596 32.5794 88.8024 32.6742C88.9451 32.7691 89.1354 32.7928 89.3257 32.7928C89.5161 32.7928 89.7064 32.7454 89.8491 32.6742C89.9918 32.6031 90.1346 32.4608 90.2297 32.2948C90.3249 32.1289 90.3725 31.9392 90.3725 31.7258C90.3725 31.5124 90.3249 31.299 90.2297 31.1567ZM90.2297 31.1567C90.1346 30.9907 90.0156 30.8722 89.8491 30.7773C89.6826 30.6825 89.5161 30.6588 89.3257 30.6588C89.1354 30.6588 88.9451 30.7062 88.8024 30.7773C88.6359 30.8722 88.5169 30.9907 88.4455 31.1567C88.3504 31.3227 88.3028 31.5124 88.3028 31.7258C88.3028 31.9392 88.3504 32.1526 88.4455 32.2948C88.5407 32.4608 88.6596 32.5794 88.8024 32.6742C88.9451 32.7691 89.1354 32.7928 89.3257 32.7928C89.5161 32.7928 89.7064 32.7454 89.8491 32.6742C89.9918 32.6031 90.1346 32.4608 90.2297 32.2948C90.3249 32.1289 90.3725 31.9392 90.3725 31.7258C90.3725 31.5124 90.3249 31.299 90.2297 31.1567ZM90.2297 31.1567C90.1346 30.9907 90.0156 30.8722 89.8491 30.7773C89.6826 30.6825 89.5161 30.6588 89.3257 30.6588C89.1354 30.6588 88.9451 30.7062 88.8024 30.7773C88.6359 30.8722 88.5169 30.9907 88.4455 31.1567C88.3504 31.3227 88.3028 31.5124 88.3028 31.7258C88.3028 31.9392 88.3504 32.1526 88.4455 32.2948C88.5407 32.4608 88.6596 32.5794 88.8024 32.6742C88.9451 32.7691 89.1354 32.7928 89.3257 32.7928C89.5161 32.7928 89.7064 32.7454 89.8491 32.6742C89.9918 32.6031 90.1346 32.4608 90.2297 32.2948C90.3249 32.1289 90.3725 31.9392 90.3725 31.7258C90.3725 31.5124 90.3249 31.299 90.2297 31.1567ZM90.2297 31.1567C90.1346 30.9907 90.0156 30.8722 89.8491 30.7773C89.6826 30.6825 89.5161 30.6588 89.3257 30.6588C89.1354 30.6588 88.9451 30.7062 88.8024 30.7773C88.6359 30.8722 88.5169 30.9907 88.4455 31.1567C88.3504 31.3227 88.3028 31.5124 88.3028 31.7258C88.3028 31.9392 88.3504 32.1526 88.4455 32.2948C88.5407 32.4608 88.6596 32.5794 88.8024 32.6742C88.9451 32.7691 89.1354 32.7928 89.3257 32.7928C89.5161 32.7928 89.7064 32.7454 89.8491 32.6742C89.9918 32.6031 90.1346 32.4608 90.2297 32.2948C90.3249 32.1289 90.3725 31.9392 90.3725 31.7258C90.3725 31.5124 90.3249 31.299 90.2297 31.1567ZM90.2297 31.1567C90.1346 30.9907 90.0156 30.8722 89.8491 30.7773C89.6826 30.6825 89.5161 30.6588 89.3257 30.6588C89.1354 30.6588 88.9451 30.7062 88.8024 30.7773C88.6359 30.8722 88.5169 30.9907 88.4455 31.1567C88.3504 31.3227 88.3028 31.5124 88.3028 31.7258C88.3028 31.9392 88.3504 32.1526 88.4455 32.2948C88.5407 32.4608 88.6596 32.5794 88.8024 32.6742C88.9451 32.7691 89.1354 32.7928 89.3257 32.7928C89.5161 32.7928 89.7064 32.7454 89.8491 32.6742C89.9918 32.6031 90.1346 32.4608 90.2297 32.2948C90.3249 32.1289 90.3725 31.9392 90.3725 31.7258C90.3725 31.5124 90.3249 31.299 90.2297 31.1567ZM94.8448 31.1567C94.7496 30.9907 94.6307 30.8722 94.488 30.7773C94.3214 30.6825 94.1549 30.6588 93.9646 30.6588C93.7743 30.6588 93.584 30.7062 93.4412 30.7773C93.2747 30.8722 93.1558 30.9907 93.0606 31.1567C92.9893 31.2753 92.9417 31.4175 92.9179 31.6072C92.9179 31.6546 92.9179 31.7021 92.9179 31.7495C92.9179 31.7969 92.9179 31.8443 92.9179 31.8917C92.9179 32.0577 92.9655 32.2 93.0606 32.3423C93.1558 32.5082 93.2747 32.6268 93.4412 32.7216C93.584 32.8165 93.7743 32.8402 93.9646 32.8402C94.1549 32.8402 94.3452 32.7928 94.488 32.7216C94.6307 32.6268 94.7496 32.5082 94.8448 32.3423C94.9399 32.1763 94.9875 31.9866 94.9875 31.7732C94.9875 31.5598 94.9399 31.3464 94.8448 31.2041V31.1567ZM94.8448 31.1567C94.7496 30.9907 94.6307 30.8722 94.488 30.7773C94.3214 30.6825 94.1549 30.6588 93.9646 30.6588C93.7743 30.6588 93.584 30.7062 93.4412 30.7773C93.2747 30.8722 93.1558 30.9907 93.0606 31.1567C92.9893 31.2753 92.9417 31.4175 92.9179 31.6072C92.9179 31.6546 92.9179 31.7021 92.9179 31.7495C92.9179 31.7969 92.9179 31.8443 92.9179 31.8917C92.9179 32.0577 92.9655 32.2 93.0606 32.3423C93.1558 32.5082 93.2747 32.6268 93.4412 32.7216C93.584 32.8165 93.7743 32.8402 93.9646 32.8402C94.1549 32.8402 94.3452 32.7928 94.488 32.7216C94.6307 32.6268 94.7496 32.5082 94.8448 32.3423C94.9399 32.1763 94.9875 31.9866 94.9875 31.7732C94.9875 31.5598 94.9399 31.3464 94.8448 31.2041V31.1567ZM90.2297 31.1567C90.1346 30.9907 90.0156 30.8722 89.8491 30.7773C89.6826 30.6825 89.5161 30.6588 89.3257 30.6588C89.1354 30.6588 88.9451 30.7062 88.8024 30.7773C88.6359 30.8722 88.5169 30.9907 88.4455 31.1567C88.3504 31.3227 88.3028 31.5124 88.3028 31.7258C88.3028 31.9392 88.3504 32.1526 88.4455 32.2948C88.5407 32.4608 88.6596 32.5794 88.8024 32.6742C88.9451 32.7691 89.1354 32.7928 89.3257 32.7928C89.5161 32.7928 89.7064 32.7454 89.8491 32.6742C89.9918 32.6031 90.1346 32.4608 90.2297 32.2948C90.3249 32.1289 90.3725 31.9392 90.3725 31.7258C90.3725 31.5124 90.3249 31.299 90.2297 31.1567ZM90.2297 31.1567C90.1346 30.9907 90.0156 30.8722 89.8491 30.7773C89.6826 30.6825 89.5161 30.6588 89.3257 30.6588C89.1354 30.6588 88.9451 30.7062 88.8024 30.7773C88.6359 30.8722 88.5169 30.9907 88.4455 31.1567C88.3504 31.3227 88.3028 31.5124 88.3028 31.7258C88.3028 31.9392 88.3504 32.1526 88.4455 32.2948C88.5407 32.4608 88.6596 32.5794 88.8024 32.6742C88.9451 32.7691 89.1354 32.7928 89.3257 32.7928C89.5161 32.7928 89.7064 32.7454 89.8491 32.6742C89.9918 32.6031 90.1346 32.4608 90.2297 32.2948C90.3249 32.1289 90.3725 31.9392 90.3725 31.7258C90.3725 31.5124 90.3249 31.299 90.2297 31.1567ZM94.8448 31.1567C94.7496 30.9907 94.6307 30.8722 94.488 30.7773C94.3214 30.6825 94.1549 30.6588 93.9646 30.6588C93.7743 30.6588 93.584 30.7062 93.4412 30.7773C93.2747 30.8722 93.1558 30.9907 93.0606 31.1567C92.9893 31.2753 92.9417 31.4175 92.9179 31.6072C92.9179 31.6546 92.9179 31.7021 92.9179 31.7495C92.9179 31.7969 92.9179 31.8443 92.9179 31.8917C92.9179 32.0577 92.9655 32.2 93.0606 32.3423C93.1558 32.5082 93.2747 32.6268 93.4412 32.7216C93.584 32.8165 93.7743 32.8402 93.9646 32.8402C94.1549 32.8402 94.3452 32.7928 94.488 32.7216C94.6307 32.6268 94.7496 32.5082 94.8448 32.3423C94.9399 32.1763 94.9875 31.9866 94.9875 31.7732C94.9875 31.5598 94.9399 31.3464 94.8448 31.2041V31.1567ZM102.457 31.1567C102.362 30.9907 102.243 30.8722 102.1 30.7773C101.958 30.6825 101.767 30.6588 101.577 30.6588C101.387 30.6588 101.196 30.7062 101.054 30.7773C100.911 30.8722 100.792 30.9907 100.697 31.1567C100.602 31.3227 100.554 31.5124 100.554 31.7258C100.554 31.9392 100.602 32.1526 100.697 32.2948C100.792 32.4371 100.911 32.5794 101.054 32.6742C101.22 32.7691 101.387 32.7928 101.577 32.7928C101.767 32.7928 101.958 32.7454 102.124 32.6742C102.291 32.6031 102.41 32.4608 102.481 32.2948C102.552 32.1289 102.624 31.9392 102.624 31.7258C102.624 31.5124 102.576 31.299 102.481 31.1567H102.457ZM106.454 30.7062C106.359 30.635 106.192 30.6113 105.978 30.6113H105.122V31.4649H105.978C106.192 31.4649 106.335 31.4175 106.454 31.3464C106.573 31.2753 106.62 31.1567 106.62 31.0381C106.62 30.9196 106.573 30.7773 106.454 30.7299V30.7062ZM106.573 32.1052C106.478 32.034 106.311 31.9866 106.073 31.9866H105.122V32.8876H106.049C106.287 32.8876 106.43 32.8402 106.549 32.7691C106.668 32.6979 106.715 32.5794 106.715 32.4371C106.715 32.2948 106.668 32.1763 106.549 32.1052H106.573ZM106.573 32.1052C106.478 32.034 106.311 31.9866 106.073 31.9866H105.122V32.8876H106.049C106.287 32.8876 106.43 32.8402 106.549 32.7691C106.668 32.6979 106.715 32.5794 106.715 32.4371C106.715 32.2948 106.668 32.1763 106.549 32.1052H106.573ZM106.454 30.7062C106.359 30.635 106.192 30.6113 105.978 30.6113H105.122V31.4649H105.978C106.192 31.4649 106.335 31.4175 106.454 31.3464C106.573 31.2753 106.62 31.1567 106.62 31.0381C106.62 30.9196 106.573 30.7773 106.454 30.7299V30.7062ZM102.457 31.1567C102.362 30.9907 102.243 30.8722 102.1 30.7773C101.958 30.6825 101.767 30.6588 101.577 30.6588C101.387 30.6588 101.196 30.7062 101.054 30.7773C100.911 30.8722 100.792 30.9907 100.697 31.1567C100.602 31.3227 100.554 31.5124 100.554 31.7258C100.554 31.9392 100.602 32.1526 100.697 32.2948C100.792 32.4371 100.911 32.5794 101.054 32.6742C101.22 32.7691 101.387 32.7928 101.577 32.7928C101.767 32.7928 101.958 32.7454 102.124 32.6742C102.291 32.6031 102.41 32.4608 102.481 32.2948C102.552 32.1289 102.624 31.9392 102.624 31.7258C102.624 31.5124 102.576 31.299 102.481 31.1567H102.457ZM94.8448 31.1567C94.7496 30.9907 94.6307 30.8722 94.488 30.7773C94.3214 30.6825 94.1549 30.6588 93.9646 30.6588C93.7743 30.6588 93.584 30.7062 93.4412 30.7773C93.2747 30.8722 93.1558 30.9907 93.0606 31.1567C92.9893 31.2753 92.9417 31.4175 92.9179 31.6072C92.9179 31.6546 92.9179 31.7021 92.9179 31.7495C92.9179 31.7969 92.9179 31.8443 92.9179 31.8917C92.9179 32.0577 92.9655 32.2 93.0606 32.3423C93.1558 32.5082 93.2747 32.6268 93.4412 32.7216C93.584 32.8165 93.7743 32.8402 93.9646 32.8402C94.1549 32.8402 94.3452 32.7928 94.488 32.7216C94.6307 32.6268 94.7496 32.5082 94.8448 32.3423C94.9399 32.1763 94.9875 31.9866 94.9875 31.7732C94.9875 31.5598 94.9399 31.3464 94.8448 31.2041V31.1567ZM90.2297 31.1567C90.1346 30.9907 90.0156 30.8722 89.8491 30.7773C89.6826 30.6825 89.5161 30.6588 89.3257 30.6588C89.1354 30.6588 88.9451 30.7062 88.8024 30.7773C88.6359 30.8722 88.5169 30.9907 88.4455 31.1567C88.3504 31.3227 88.3028 31.5124 88.3028 31.7258C88.3028 31.9392 88.3504 32.1526 88.4455 32.2948C88.5407 32.4608 88.6596 32.5794 88.8024 32.6742C88.9451 32.7691 89.1354 32.7928 89.3257 32.7928C89.5161 32.7928 89.7064 32.7454 89.8491 32.6742C89.9918 32.6031 90.1346 32.4608 90.2297 32.2948C90.3249 32.1289 90.3725 31.9392 90.3725 31.7258C90.3725 31.5124 90.3249 31.299 90.2297 31.1567ZM90.2297 31.1567C90.1346 30.9907 90.0156 30.8722 89.8491 30.7773C89.6826 30.6825 89.5161 30.6588 89.3257 30.6588C89.1354 30.6588 88.9451 30.7062 88.8024 30.7773C88.6359 30.8722 88.5169 30.9907 88.4455 31.1567C88.3504 31.3227 88.3028 31.5124 88.3028 31.7258C88.3028 31.9392 88.3504 32.1526 88.4455 32.2948C88.5407 32.4608 88.6596 32.5794 88.8024 32.6742C88.9451 32.7691 89.1354 32.7928 89.3257 32.7928C89.5161 32.7928 89.7064 32.7454 89.8491 32.6742C89.9918 32.6031 90.1346 32.4608 90.2297 32.2948C90.3249 32.1289 90.3725 31.9392 90.3725 31.7258C90.3725 31.5124 90.3249 31.299 90.2297 31.1567ZM94.8448 31.1567C94.7496 30.9907 94.6307 30.8722 94.488 30.7773C94.3214 30.6825 94.1549 30.6588 93.9646 30.6588C93.7743 30.6588 93.584 30.7062 93.4412 30.7773C93.2747 30.8722 93.1558 30.9907 93.0606 31.1567C92.9893 31.2753 92.9417 31.4175 92.9179 31.6072C92.9179 31.6546 92.9179 31.7021 92.9179 31.7495C92.9179 31.7969 92.9179 31.8443 92.9179 31.8917C92.9179 32.0577 92.9655 32.2 93.0606 32.3423C93.1558 32.5082 93.2747 32.6268 93.4412 32.7216C93.584 32.8165 93.7743 32.8402 93.9646 32.8402C94.1549 32.8402 94.3452 32.7928 94.488 32.7216C94.6307 32.6268 94.7496 32.5082 94.8448 32.3423C94.9399 32.1763 94.9875 31.9866 94.9875 31.7732C94.9875 31.5598 94.9399 31.3464 94.8448 31.2041V31.1567ZM102.457 31.1567C102.362 30.9907 102.243 30.8722 102.1 30.7773C101.958 30.6825 101.767 30.6588 101.577 30.6588C101.387 30.6588 101.196 30.7062 101.054 30.7773C100.911 30.8722 100.792 30.9907 100.697 31.1567C100.602 31.3227 100.554 31.5124 100.554 31.7258C100.554 31.9392 100.602 32.1526 100.697 32.2948C100.792 32.4371 100.911 32.5794 101.054 32.6742C101.22 32.7691 101.387 32.7928 101.577 32.7928C101.767 32.7928 101.958 32.7454 102.124 32.6742C102.291 32.6031 102.41 32.4608 102.481 32.2948C102.552 32.1289 102.624 31.9392 102.624 31.7258C102.624 31.5124 102.576 31.299 102.481 31.1567H102.457ZM106.454 30.7062C106.359 30.635 106.192 30.6113 105.978 30.6113H105.122V31.4649H105.978C106.192 31.4649 106.335 31.4175 106.454 31.3464C106.573 31.2753 106.62 31.1567 106.62 31.0381C106.62 30.9196 106.573 30.7773 106.454 30.7299V30.7062ZM106.573 32.1052C106.478 32.034 106.311 31.9866 106.073 31.9866H105.122V32.8876H106.049C106.287 32.8876 106.43 32.8402 106.549 32.7691C106.668 32.6979 106.715 32.5794 106.715 32.4371C106.715 32.2948 106.668 32.1763 106.549 32.1052H106.573ZM110.569 31.868C110.45 31.7732 110.284 31.7258 110.046 31.7258H109.332V32.8876H110.022C110.26 32.8876 110.427 32.8402 110.546 32.7453C110.664 32.6505 110.736 32.4845 110.736 32.2948C110.736 32.1052 110.664 31.9629 110.546 31.868H110.569ZM121.631 30.7062V31.2515C121.607 31.4412 121.584 31.6546 121.584 31.8206C121.584 32.0103 121.536 32.1763 121.488 32.3423C121.465 32.4845 121.393 32.6268 121.322 32.7216C121.322 32.7454 121.274 32.7691 121.251 32.7928H122.963V30.7062H121.631ZM121.631 30.7062V31.2515C121.607 31.4412 121.584 31.6546 121.584 31.8206C121.584 32.0103 121.536 32.1763 121.488 32.3423C121.465 32.4845 121.393 32.6268 121.322 32.7216C121.322 32.7454 121.274 32.7691 121.251 32.7928H122.963V30.7062H121.631ZM110.569 31.868C110.45 31.7732 110.284 31.7258 110.046 31.7258H109.332V32.8876H110.022C110.26 32.8876 110.427 32.8402 110.546 32.7453C110.664 32.6505 110.736 32.4845 110.736 32.2948C110.736 32.1052 110.664 31.9629 110.546 31.868H110.569ZM106.573 32.1052C106.478 32.034 106.311 31.9866 106.073 31.9866H105.122V32.8876H106.049C106.287 32.8876 106.43 32.8402 106.549 32.7691C106.668 32.6979 106.715 32.5794 106.715 32.4371C106.715 32.2948 106.668 32.1763 106.549 32.1052H106.573ZM106.454 31.3464C106.573 31.2753 106.62 31.1567 106.62 31.0381C106.62 30.9196 106.573 30.7773 106.454 30.7299C106.359 30.6588 106.192 30.635 105.978 30.635H105.122V31.4887H105.978C106.192 31.4887 106.335 31.4412 106.454 31.3701V31.3464ZM102.457 31.1567C102.362 30.9907 102.243 30.8722 102.1 30.7773C101.958 30.6825 101.767 30.6588 101.577 30.6588C101.387 30.6588 101.196 30.7062 101.054 30.7773C100.911 30.8722 100.792 30.9907 100.697 31.1567C100.602 31.3227 100.554 31.5124 100.554 31.7258C100.554 31.9392 100.602 32.1526 100.697 32.2948C100.792 32.4371 100.911 32.5794 101.054 32.6742C101.22 32.7691 101.387 32.7928 101.577 32.7928C101.767 32.7928 101.958 32.7454 102.124 32.6742C102.291 32.6031 102.41 32.4608 102.481 32.2948C102.552 32.1289 102.624 31.9392 102.624 31.7258C102.624 31.5124 102.576 31.299 102.481 31.1567H102.457ZM94.8448 31.1567C94.7496 30.9907 94.6307 30.8722 94.488 30.7773C94.3214 30.6825 94.1549 30.6588 93.9646 30.6588C93.7743 30.6588 93.584 30.7062 93.4412 30.7773C93.2747 30.8722 93.1558 30.9907 93.0606 31.1567C92.9893 31.2753 92.9417 31.4175 92.9179 31.6072C92.9179 31.6546 92.9179 31.7021 92.9179 31.7495C92.9179 31.7969 92.9179 31.8443 92.9179 31.8917C92.9179 32.0577 92.9655 32.2 93.0606 32.3423C93.1558 32.5082 93.2747 32.6268 93.4412 32.7216C93.584 32.8165 93.7743 32.8402 93.9646 32.8402C94.1549 32.8402 94.3452 32.7928 94.488 32.7216C94.6307 32.6268 94.7496 32.5082 94.8448 32.3423C94.9399 32.1763 94.9875 31.9866 94.9875 31.7732C94.9875 31.5598 94.9399 31.3464 94.8448 31.2041V31.1567ZM90.2297 31.1567C90.1346 30.9907 90.0156 30.8722 89.8491 30.7773C89.6826 30.6825 89.5161 30.6588 89.3257 30.6588C89.1354 30.6588 88.9451 30.7062 88.8024 30.7773C88.6359 30.8722 88.5169 30.9907 88.4455 31.1567C88.3504 31.3227 88.3028 31.5124 88.3028 31.7258C88.3028 31.9392 88.3504 32.1526 88.4455 32.2948C88.5407 32.4608 88.6596 32.5794 88.8024 32.6742C88.9451 32.7691 89.1354 32.7928 89.3257 32.7928C89.5161 32.7928 89.7064 32.7454 89.8491 32.6742C89.9918 32.6031 90.1346 32.4608 90.2297 32.2948C90.3249 32.1289 90.3725 31.9392 90.3725 31.7258C90.3725 31.5124 90.3249 31.299 90.2297 31.1567ZM138.212 28.9515C137.522 28.2639 136.571 27.8371 135.5 27.8371H82.2128C80.0956 27.8371 78.3828 29.5443 78.3828 31.6546C78.3828 33.7649 78.811 33.6701 79.5009 34.3577C80.1908 35.0454 81.1423 35.4722 82.2128 35.4722H135.5C137.617 35.4722 139.33 33.7649 139.33 31.6546C139.33 29.5443 138.902 29.6629 138.212 28.9515ZM87.1847 30.7062H85.9715V33.4804H85.1627V30.7062H83.9256V30.0185H87.1847V30.7062ZM90.9434 32.6742C90.7769 32.935 90.5628 33.1484 90.2773 33.3144C89.9918 33.4567 89.6826 33.5515 89.3257 33.5515C88.9689 33.5515 88.6597 33.4804 88.3742 33.3144C88.0887 33.1484 87.8746 32.9588 87.7081 32.6742C87.5416 32.4134 87.4702 32.1052 87.4702 31.7495C87.4702 31.3938 87.5416 31.1093 87.7081 30.8247C87.8746 30.5639 88.0887 30.3505 88.3742 30.1845C88.6359 30.0423 88.9689 29.9474 89.3257 29.9474C89.6826 29.9474 90.0156 30.0185 90.2773 30.1845C90.5628 30.3505 90.7769 30.5402 90.9434 30.801C91.1099 31.0619 91.1813 31.3701 91.1813 31.7258C91.1813 32.0814 91.1099 32.366 90.9434 32.6505V32.6742ZM95.5822 32.6979C95.4395 32.9588 95.2254 33.1722 94.9637 33.3144C94.7021 33.4567 94.3928 33.5278 94.0598 33.5278H93.9646C93.7267 33.5278 93.4888 33.4567 93.2747 33.3381C93.1558 33.267 93.0368 33.1722 92.9417 33.0536V34.7371H92.1328V29.9948H92.9179V30.4454C92.9179 30.4454 92.9179 30.4216 92.9417 30.3979C93.0368 30.3031 93.1558 30.2082 93.2747 30.1371C93.4888 30.0185 93.7267 29.9711 93.9646 29.9474H94.0598C94.3928 29.9474 94.7021 30.0186 94.9637 30.1608C95.2254 30.3031 95.4395 30.5165 95.5822 30.7773C95.7488 31.0381 95.8201 31.3464 95.8201 31.7021C95.8201 32.0577 95.7488 32.366 95.5822 32.6505V32.6979ZM103.171 32.6742C103.004 32.935 102.79 33.1484 102.505 33.3144C102.219 33.4567 101.91 33.5515 101.553 33.5515C101.196 33.5515 100.887 33.4804 100.602 33.3144C100.316 33.1484 100.102 32.9588 99.9356 32.6742C99.7691 32.4134 99.6977 32.1052 99.6977 31.7495C99.6977 31.3938 99.7691 31.1093 99.9356 30.8247C100.102 30.5639 100.316 30.3505 100.602 30.1845C100.887 30.0423 101.196 29.9474 101.553 29.9474C101.91 29.9474 102.243 30.0185 102.505 30.1845C102.79 30.3505 103.004 30.5402 103.171 30.801C103.337 31.0619 103.409 31.3701 103.409 31.7258C103.409 32.0814 103.337 32.366 103.171 32.6505V32.6742ZM107.167 33.2196C106.93 33.3856 106.597 33.4804 106.121 33.4804H104.337V29.9948H106.026C106.454 29.9948 106.787 30.066 107.025 30.232C107.263 30.3979 107.382 30.6113 107.382 30.8959C107.382 31.1804 107.263 31.3938 107.049 31.5598C106.977 31.6072 106.906 31.6546 106.834 31.6783C106.977 31.702 107.096 31.7732 107.191 31.8443C107.405 32.0103 107.501 32.2237 107.501 32.5082C107.501 32.7928 107.382 33.0536 107.144 33.2196H107.167ZM111.188 33.1722C110.926 33.3856 110.569 33.4804 110.094 33.4804H108.5V29.9948H109.308V31.133H110.022H110.189C110.641 31.133 110.974 31.2278 111.212 31.4412C111.449 31.6309 111.568 31.9155 111.568 32.2948C111.568 32.6742 111.45 32.9588 111.188 33.1722ZM124.319 34.2629H123.558V33.4804H120.87V34.2629H120.109V32.7928H120.228C120.347 32.7928 120.466 32.7454 120.537 32.6742C120.608 32.5794 120.68 32.4608 120.727 32.3185C120.775 32.1763 120.799 32.0103 120.822 31.7969C120.822 31.6072 120.846 31.3938 120.87 31.2041L120.918 30.0185H123.796V32.7928H124.319V34.2629ZM128.34 32.6742C128.173 32.935 127.959 33.1484 127.674 33.3144C127.388 33.4567 127.079 33.5515 126.722 33.5515C126.365 33.5515 126.056 33.4804 125.77 33.3144C125.485 33.1484 125.271 32.9588 125.104 32.6742C124.938 32.4134 124.866 32.1052 124.866 31.7495C124.866 31.3938 124.938 31.1093 125.104 30.8247C125.271 30.5639 125.485 30.3505 125.77 30.1845C126.056 30.0423 126.365 29.9474 126.722 29.9474C127.079 29.9474 127.412 30.0185 127.674 30.1845C127.959 30.3505 128.173 30.5402 128.34 30.801C128.506 31.0619 128.578 31.3701 128.578 31.7258C128.578 32.0814 128.506 32.366 128.34 32.6505V32.6742ZM127.245 30.801C127.103 30.7062 126.912 30.6825 126.722 30.6825C126.532 30.6825 126.341 30.7299 126.199 30.801C126.056 30.8959 125.937 31.0144 125.842 31.1804C125.747 31.3464 125.699 31.5361 125.699 31.7495C125.699 31.9629 125.747 32.1763 125.842 32.3185C125.937 32.4608 126.056 32.6031 126.199 32.6979C126.365 32.7928 126.532 32.8165 126.722 32.8165C126.912 32.8165 127.103 32.7691 127.245 32.6979C127.412 32.6031 127.531 32.4845 127.626 32.3185C127.721 32.1526 127.769 31.9629 127.769 31.7495C127.769 31.5361 127.721 31.3227 127.626 31.1804C127.531 31.0381 127.412 30.8959 127.245 30.801ZM121.631 31.2515C121.631 31.4412 121.631 31.6546 121.584 31.8206C121.584 32.0103 121.536 32.1763 121.488 32.3423C121.465 32.4845 121.393 32.6268 121.322 32.7216C121.322 32.7454 121.274 32.7691 121.251 32.7928H122.963V30.7062H121.631V31.2515ZM110.046 31.7258H109.332V32.8876H110.022C110.26 32.8876 110.427 32.8402 110.546 32.7453C110.664 32.6505 110.736 32.4845 110.736 32.2948C110.736 32.1052 110.664 31.9629 110.546 31.868C110.427 31.7732 110.26 31.7258 110.022 31.7258H110.046ZM106.073 32.0103H105.122V32.9113H106.049C106.287 32.9113 106.43 32.8639 106.549 32.7928C106.668 32.7216 106.715 32.6031 106.715 32.4608C106.715 32.3186 106.668 32.2 106.549 32.1289C106.43 32.0577 106.287 32.0103 106.049 32.0103H106.073ZM106.454 31.3464C106.573 31.2753 106.62 31.1567 106.62 31.0381C106.62 30.9196 106.573 30.7773 106.454 30.7299C106.359 30.6588 106.192 30.635 105.978 30.635H105.122V31.4887H105.978C106.192 31.4887 106.335 31.4412 106.454 31.3701V31.3464ZM102.1 30.801C101.934 30.7062 101.767 30.6825 101.577 30.6825C101.387 30.6825 101.196 30.7299 101.054 30.801C100.911 30.8959 100.792 31.0144 100.697 31.1804C100.602 31.3464 100.554 31.5361 100.554 31.7495C100.554 31.9629 100.602 32.1763 100.697 32.3185C100.792 32.4608 100.911 32.6031 101.054 32.6979C101.22 32.7928 101.387 32.8165 101.577 32.8165C101.767 32.8165 101.958 32.7691 102.124 32.6979C102.291 32.6268 102.41 32.4845 102.481 32.3185C102.552 32.1526 102.624 31.9629 102.624 31.7495C102.624 31.5361 102.576 31.3227 102.481 31.1804C102.386 31.0381 102.267 30.8959 102.124 30.801H102.1ZM94.488 30.801C94.3214 30.7062 94.1549 30.6825 93.9646 30.6825C93.7743 30.6825 93.584 30.7299 93.4412 30.801C93.2747 30.8959 93.1558 31.0144 93.0606 31.1804C92.9893 31.299 92.9417 31.4412 92.9179 31.6309C92.9179 31.6783 92.9179 31.7258 92.9179 31.7732C92.9179 31.8206 92.9179 31.868 92.9179 31.9155C92.9179 32.0814 92.9655 32.2237 93.0606 32.366C93.1558 32.532 93.2747 32.6505 93.4412 32.7453C93.584 32.8402 93.7743 32.8639 93.9646 32.8639C94.1549 32.8639 94.3452 32.8165 94.488 32.7453C94.6307 32.6505 94.7496 32.532 94.8448 32.366C94.9399 32.2 94.9875 32.0103 94.9875 31.7969C94.9875 31.5835 94.9399 31.3701 94.8448 31.2278C94.7496 31.0856 94.6307 30.9433 94.488 30.8484V30.801ZM89.8491 30.801C89.6826 30.7062 89.5161 30.6825 89.3257 30.6825C89.1354 30.6825 88.9451 30.7299 88.8024 30.801C88.6359 30.8959 88.5169 31.0144 88.4455 31.1804C88.3504 31.3464 88.3028 31.5361 88.3028 31.7495C88.3028 31.9629 88.3504 32.1763 88.4455 32.3185C88.5407 32.4845 88.6596 32.6031 88.8024 32.6979C88.9451 32.7928 89.1354 32.8165 89.3257 32.8165C89.5161 32.8165 89.7064 32.7691 89.8491 32.6979C89.9918 32.6268 90.1346 32.4845 90.2297 32.3185C90.3249 32.1526 90.3725 31.9629 90.3725 31.7495C90.3725 31.5361 90.3249 31.3227 90.2297 31.1804C90.1346 31.0144 90.0156 30.8959 89.8491 30.801ZM90.2297 31.1567C90.1346 30.9907 90.0156 30.8722 89.8491 30.7773C89.6826 30.6825 89.5161 30.6588 89.3257 30.6588C89.1354 30.6588 88.9451 30.7062 88.8024 30.7773C88.6359 30.8722 88.5169 30.9907 88.4455 31.1567C88.3504 31.3227 88.3028 31.5124 88.3028 31.7258C88.3028 31.9392 88.3504 32.1526 88.4455 32.2948C88.5407 32.4608 88.6596 32.5794 88.8024 32.6742C88.9451 32.7691 89.1354 32.7928 89.3257 32.7928C89.5161 32.7928 89.7064 32.7454 89.8491 32.6742C89.9918 32.6031 90.1346 32.4608 90.2297 32.2948C90.3249 32.1289 90.3725 31.9392 90.3725 31.7258C90.3725 31.5124 90.3249 31.299 90.2297 31.1567ZM94.8448 31.1567C94.7496 30.9907 94.6307 30.8722 94.488 30.7773C94.3214 30.6825 94.1549 30.6588 93.9646 30.6588C93.7743 30.6588 93.584 30.7062 93.4412 30.7773C93.2747 30.8722 93.1558 30.9907 93.0606 31.1567C92.9893 31.2753 92.9417 31.4175 92.9179 31.6072C92.9179 31.6546 92.9179 31.7021 92.9179 31.7495C92.9179 31.7969 92.9179 31.8443 92.9179 31.8917C92.9179 32.0577 92.9655 32.2 93.0606 32.3423C93.1558 32.5082 93.2747 32.6268 93.4412 32.7216C93.584 32.8165 93.7743 32.8402 93.9646 32.8402C94.1549 32.8402 94.3452 32.7928 94.488 32.7216C94.6307 32.6268 94.7496 32.5082 94.8448 32.3423C94.9399 32.1763 94.9875 31.9866 94.9875 31.7732C94.9875 31.5598 94.9399 31.3464 94.8448 31.2041V31.1567ZM102.457 31.1567C102.362 30.9907 102.243 30.8722 102.1 30.7773C101.958 30.6825 101.767 30.6588 101.577 30.6588C101.387 30.6588 101.196 30.7062 101.054 30.7773C100.911 30.8722 100.792 30.9907 100.697 31.1567C100.602 31.3227 100.554 31.5124 100.554 31.7258C100.554 31.9392 100.602 32.1526 100.697 32.2948C100.792 32.4371 100.911 32.5794 101.054 32.6742C101.22 32.7691 101.387 32.7928 101.577 32.7928C101.767 32.7928 101.958 32.7454 102.124 32.6742C102.291 32.6031 102.41 32.4608 102.481 32.2948C102.552 32.1289 102.624 31.9392 102.624 31.7258C102.624 31.5124 102.576 31.299 102.481 31.1567H102.457ZM106.454 30.7062C106.359 30.635 106.192 30.6113 105.978 30.6113H105.122V31.4649H105.978C106.192 31.4649 106.335 31.4175 106.454 31.3464C106.573 31.2753 106.62 31.1567 106.62 31.0381C106.62 30.9196 106.573 30.7773 106.454 30.7299V30.7062ZM106.573 32.1052C106.478 32.034 106.311 31.9866 106.073 31.9866H105.122V32.8876H106.049C106.287 32.8876 106.43 32.8402 106.549 32.7691C106.668 32.6979 106.715 32.5794 106.715 32.4371C106.715 32.2948 106.668 32.1763 106.549 32.1052H106.573ZM110.569 31.868C110.45 31.7732 110.284 31.7258 110.046 31.7258H109.332V32.8876H110.022C110.26 32.8876 110.427 32.8402 110.546 32.7453C110.664 32.6505 110.736 32.4845 110.736 32.2948C110.736 32.1052 110.664 31.9629 110.546 31.868H110.569ZM110.569 31.868C110.45 31.7732 110.284 31.7258 110.046 31.7258H109.332V32.8876H110.022C110.26 32.8876 110.427 32.8402 110.546 32.7453C110.664 32.6505 110.736 32.4845 110.736 32.2948C110.736 32.1052 110.664 31.9629 110.546 31.868H110.569ZM106.573 32.1052C106.478 32.034 106.311 31.9866 106.073 31.9866H105.122V32.8876H106.049C106.287 32.8876 106.43 32.8402 106.549 32.7691C106.668 32.6979 106.715 32.5794 106.715 32.4371C106.715 32.2948 106.668 32.1763 106.549 32.1052H106.573ZM106.454 30.7062C106.359 30.635 106.192 30.6113 105.978 30.6113H105.122V31.4649H105.978C106.192 31.4649 106.335 31.4175 106.454 31.3464C106.573 31.2753 106.62 31.1567 106.62 31.0381C106.62 30.9196 106.573 30.7773 106.454 30.7299V30.7062ZM102.457 31.1567C102.362 30.9907 102.243 30.8722 102.1 30.7773C101.958 30.6825 101.767 30.6588 101.577 30.6588C101.387 30.6588 101.196 30.7062 101.054 30.7773C100.911 30.8722 100.792 30.9907 100.697 31.1567C100.602 31.3227 100.554 31.5124 100.554 31.7258C100.554 31.9392 100.602 32.1526 100.697 32.2948C100.792 32.4371 100.911 32.5794 101.054 32.6742C101.22 32.7691 101.387 32.7928 101.577 32.7928C101.767 32.7928 101.958 32.7454 102.124 32.6742C102.291 32.6031 102.41 32.4608 102.481 32.2948C102.552 32.1289 102.624 31.9392 102.624 31.7258C102.624 31.5124 102.576 31.299 102.481 31.1567H102.457ZM94.8448 31.1567C94.7496 30.9907 94.6307 30.8722 94.488 30.7773C94.3214 30.6825 94.1549 30.6588 93.9646 30.6588C93.7743 30.6588 93.584 30.7062 93.4412 30.7773C93.2747 30.8722 93.1558 30.9907 93.0606 31.1567C92.9893 31.2753 92.9417 31.4175 92.9179 31.6072C92.9179 31.6546 92.9179 31.7021 92.9179 31.7495C92.9179 31.7969 92.9179 31.8443 92.9179 31.8917C92.9179 32.0577 92.9655 32.2 93.0606 32.3423C93.1558 32.5082 93.2747 32.6268 93.4412 32.7216C93.584 32.8165 93.7743 32.8402 93.9646 32.8402C94.1549 32.8402 94.3452 32.7928 94.488 32.7216C94.6307 32.6268 94.7496 32.5082 94.8448 32.3423C94.9399 32.1763 94.9875 31.9866 94.9875 31.7732C94.9875 31.5598 94.9399 31.3464 94.8448 31.2041V31.1567ZM90.2297 31.1567C90.1346 30.9907 90.0156 30.8722 89.8491 30.7773C89.6826 30.6825 89.5161 30.6588 89.3257 30.6588C89.1354 30.6588 88.9451 30.7062 88.8024 30.7773C88.6359 30.8722 88.5169 30.9907 88.4455 31.1567C88.3504 31.3227 88.3028 31.5124 88.3028 31.7258C88.3028 31.9392 88.3504 32.1526 88.4455 32.2948C88.5407 32.4608 88.6596 32.5794 88.8024 32.6742C88.9451 32.7691 89.1354 32.7928 89.3257 32.7928C89.5161 32.7928 89.7064 32.7454 89.8491 32.6742C89.9918 32.6031 90.1346 32.4608 90.2297 32.2948C90.3249 32.1289 90.3725 31.9392 90.3725 31.7258C90.3725 31.5124 90.3249 31.299 90.2297 31.1567ZM90.2297 31.1567C90.1346 30.9907 90.0156 30.8722 89.8491 30.7773C89.6826 30.6825 89.5161 30.6588 89.3257 30.6588C89.1354 30.6588 88.9451 30.7062 88.8024 30.7773C88.6359 30.8722 88.5169 30.9907 88.4455 31.1567C88.3504 31.3227 88.3028 31.5124 88.3028 31.7258C88.3028 31.9392 88.3504 32.1526 88.4455 32.2948C88.5407 32.4608 88.6596 32.5794 88.8024 32.6742C88.9451 32.7691 89.1354 32.7928 89.3257 32.7928C89.5161 32.7928 89.7064 32.7454 89.8491 32.6742C89.9918 32.6031 90.1346 32.4608 90.2297 32.2948C90.3249 32.1289 90.3725 31.9392 90.3725 31.7258C90.3725 31.5124 90.3249 31.299 90.2297 31.1567ZM94.8448 31.1567C94.7496 30.9907 94.6307 30.8722 94.488 30.7773C94.3214 30.6825 94.1549 30.6588 93.9646 30.6588C93.7743 30.6588 93.584 30.7062 93.4412 30.7773C93.2747 30.8722 93.1558 30.9907 93.0606 31.1567C92.9893 31.2753 92.9417 31.4175 92.9179 31.6072C92.9179 31.6546 92.9179 31.7021 92.9179 31.7495C92.9179 31.7969 92.9179 31.8443 92.9179 31.8917C92.9179 32.0577 92.9655 32.2 93.0606 32.3423C93.1558 32.5082 93.2747 32.6268 93.4412 32.7216C93.584 32.8165 93.7743 32.8402 93.9646 32.8402C94.1549 32.8402 94.3452 32.7928 94.488 32.7216C94.6307 32.6268 94.7496 32.5082 94.8448 32.3423C94.9399 32.1763 94.9875 31.9866 94.9875 31.7732C94.9875 31.5598 94.9399 31.3464 94.8448 31.2041V31.1567ZM102.457 31.1567C102.362 30.9907 102.243 30.8722 102.1 30.7773C101.958 30.6825 101.767 30.6588 101.577 30.6588C101.387 30.6588 101.196 30.7062 101.054 30.7773C100.911 30.8722 100.792 30.9907 100.697 31.1567C100.602 31.3227 100.554 31.5124 100.554 31.7258C100.554 31.9392 100.602 32.1526 100.697 32.2948C100.792 32.4371 100.911 32.5794 101.054 32.6742C101.22 32.7691 101.387 32.7928 101.577 32.7928C101.767 32.7928 101.958 32.7454 102.124 32.6742C102.291 32.6031 102.41 32.4608 102.481 32.2948C102.552 32.1289 102.624 31.9392 102.624 31.7258C102.624 31.5124 102.576 31.299 102.481 31.1567H102.457ZM102.457 31.1567C102.362 30.9907 102.243 30.8722 102.1 30.7773C101.958 30.6825 101.767 30.6588 101.577 30.6588C101.387 30.6588 101.196 30.7062 101.054 30.7773C100.911 30.8722 100.792 30.9907 100.697 31.1567C100.602 31.3227 100.554 31.5124 100.554 31.7258C100.554 31.9392 100.602 32.1526 100.697 32.2948C100.792 32.4371 100.911 32.5794 101.054 32.6742C101.22 32.7691 101.387 32.7928 101.577 32.7928C101.767 32.7928 101.958 32.7454 102.124 32.6742C102.291 32.6031 102.41 32.4608 102.481 32.2948C102.552 32.1289 102.624 31.9392 102.624 31.7258C102.624 31.5124 102.576 31.299 102.481 31.1567H102.457ZM94.8448 31.1567C94.7496 30.9907 94.6307 30.8722 94.488 30.7773C94.3214 30.6825 94.1549 30.6588 93.9646 30.6588C93.7743 30.6588 93.584 30.7062 93.4412 30.7773C93.2747 30.8722 93.1558 30.9907 93.0606 31.1567C92.9893 31.2753 92.9417 31.4175 92.9179 31.6072C92.9179 31.6546 92.9179 31.7021 92.9179 31.7495C92.9179 31.7969 92.9179 31.8443 92.9179 31.8917C92.9179 32.0577 92.9655 32.2 93.0606 32.3423C93.1558 32.5082 93.2747 32.6268 93.4412 32.7216C93.584 32.8165 93.7743 32.8402 93.9646 32.8402C94.1549 32.8402 94.3452 32.7928 94.488 32.7216C94.6307 32.6268 94.7496 32.5082 94.8448 32.3423C94.9399 32.1763 94.9875 31.9866 94.9875 31.7732C94.9875 31.5598 94.9399 31.3464 94.8448 31.2041V31.1567ZM90.2297 31.1567C90.1346 30.9907 90.0156 30.8722 89.8491 30.7773C89.6826 30.6825 89.5161 30.6588 89.3257 30.6588C89.1354 30.6588 88.9451 30.7062 88.8024 30.7773C88.6359 30.8722 88.5169 30.9907 88.4455 31.1567C88.3504 31.3227 88.3028 31.5124 88.3028 31.7258C88.3028 31.9392 88.3504 32.1526 88.4455 32.2948C88.5407 32.4608 88.6596 32.5794 88.8024 32.6742C88.9451 32.7691 89.1354 32.7928 89.3257 32.7928C89.5161 32.7928 89.7064 32.7454 89.8491 32.6742C89.9918 32.6031 90.1346 32.4608 90.2297 32.2948C90.3249 32.1289 90.3725 31.9392 90.3725 31.7258C90.3725 31.5124 90.3249 31.299 90.2297 31.1567ZM90.2297 31.1567C90.1346 30.9907 90.0156 30.8722 89.8491 30.7773C89.6826 30.6825 89.5161 30.6588 89.3257 30.6588C89.1354 30.6588 88.9451 30.7062 88.8024 30.7773C88.6359 30.8722 88.5169 30.9907 88.4455 31.1567C88.3504 31.3227 88.3028 31.5124 88.3028 31.7258C88.3028 31.9392 88.3504 32.1526 88.4455 32.2948C88.5407 32.4608 88.6596 32.5794 88.8024 32.6742C88.9451 32.7691 89.1354 32.7928 89.3257 32.7928C89.5161 32.7928 89.7064 32.7454 89.8491 32.6742C89.9918 32.6031 90.1346 32.4608 90.2297 32.2948C90.3249 32.1289 90.3725 31.9392 90.3725 31.7258C90.3725 31.5124 90.3249 31.299 90.2297 31.1567ZM94.8448 31.1567C94.7496 30.9907 94.6307 30.8722 94.488 30.7773C94.3214 30.6825 94.1549 30.6588 93.9646 30.6588C93.7743 30.6588 93.584 30.7062 93.4412 30.7773C93.2747 30.8722 93.1558 30.9907 93.0606 31.1567C92.9893 31.2753 92.9417 31.4175 92.9179 31.6072C92.9179 31.6546 92.9179 31.7021 92.9179 31.7495C92.9179 31.7969 92.9179 31.8443 92.9179 31.8917C92.9179 32.0577 92.9655 32.2 93.0606 32.3423C93.1558 32.5082 93.2747 32.6268 93.4412 32.7216C93.584 32.8165 93.7743 32.8402 93.9646 32.8402C94.1549 32.8402 94.3452 32.7928 94.488 32.7216C94.6307 32.6268 94.7496 32.5082 94.8448 32.3423C94.9399 32.1763 94.9875 31.9866 94.9875 31.7732C94.9875 31.5598 94.9399 31.3464 94.8448 31.2041V31.1567ZM94.8448 31.1567C94.7496 30.9907 94.6307 30.8722 94.488 30.7773C94.3214 30.6825 94.1549 30.6588 93.9646 30.6588C93.7743 30.6588 93.584 30.7062 93.4412 30.7773C93.2747 30.8722 93.1558 30.9907 93.0606 31.1567C92.9893 31.2753 92.9417 31.4175 92.9179 31.6072C92.9179 31.6546 92.9179 31.7021 92.9179 31.7495C92.9179 31.7969 92.9179 31.8443 92.9179 31.8917C92.9179 32.0577 92.9655 32.2 93.0606 32.3423C93.1558 32.5082 93.2747 32.6268 93.4412 32.7216C93.584 32.8165 93.7743 32.8402 93.9646 32.8402C94.1549 32.8402 94.3452 32.7928 94.488 32.7216C94.6307 32.6268 94.7496 32.5082 94.8448 32.3423C94.9399 32.1763 94.9875 31.9866 94.9875 31.7732C94.9875 31.5598 94.9399 31.3464 94.8448 31.2041V31.1567ZM90.2297 31.1567C90.1346 30.9907 90.0156 30.8722 89.8491 30.7773C89.6826 30.6825 89.5161 30.6588 89.3257 30.6588C89.1354 30.6588 88.9451 30.7062 88.8024 30.7773C88.6359 30.8722 88.5169 30.9907 88.4455 31.1567C88.3504 31.3227 88.3028 31.5124 88.3028 31.7258C88.3028 31.9392 88.3504 32.1526 88.4455 32.2948C88.5407 32.4608 88.6596 32.5794 88.8024 32.6742C88.9451 32.7691 89.1354 32.7928 89.3257 32.7928C89.5161 32.7928 89.7064 32.7454 89.8491 32.6742C89.9918 32.6031 90.1346 32.4608 90.2297 32.2948C90.3249 32.1289 90.3725 31.9392 90.3725 31.7258C90.3725 31.5124 90.3249 31.299 90.2297 31.1567ZM90.2297 31.1567C90.1346 30.9907 90.0156 30.8722 89.8491 30.7773C89.6826 30.6825 89.5161 30.6588 89.3257 30.6588C89.1354 30.6588 88.9451 30.7062 88.8024 30.7773C88.6359 30.8722 88.5169 30.9907 88.4455 31.1567C88.3504 31.3227 88.3028 31.5124 88.3028 31.7258C88.3028 31.9392 88.3504 32.1526 88.4455 32.2948C88.5407 32.4608 88.6596 32.5794 88.8024 32.6742C88.9451 32.7691 89.1354 32.7928 89.3257 32.7928C89.5161 32.7928 89.7064 32.7454 89.8491 32.6742C89.9918 32.6031 90.1346 32.4608 90.2297 32.2948C90.3249 32.1289 90.3725 31.9392 90.3725 31.7258C90.3725 31.5124 90.3249 31.299 90.2297 31.1567ZM90.2297 31.1567C90.1346 30.9907 90.0156 30.8722 89.8491 30.7773C89.6826 30.6825 89.5161 30.6588 89.3257 30.6588C89.1354 30.6588 88.9451 30.7062 88.8024 30.7773C88.6359 30.8722 88.5169 30.9907 88.4455 31.1567C88.3504 31.3227 88.3028 31.5124 88.3028 31.7258C88.3028 31.9392 88.3504 32.1526 88.4455 32.2948C88.5407 32.4608 88.6596 32.5794 88.8024 32.6742C88.9451 32.7691 89.1354 32.7928 89.3257 32.7928C89.5161 32.7928 89.7064 32.7454 89.8491 32.6742C89.9918 32.6031 90.1346 32.4608 90.2297 32.2948C90.3249 32.1289 90.3725 31.9392 90.3725 31.7258C90.3725 31.5124 90.3249 31.299 90.2297 31.1567ZM90.2297 31.1567C90.1346 30.9907 90.0156 30.8722 89.8491 30.7773C89.6826 30.6825 89.5161 30.6588 89.3257 30.6588C89.1354 30.6588 88.9451 30.7062 88.8024 30.7773C88.6359 30.8722 88.5169 30.9907 88.4455 31.1567C88.3504 31.3227 88.3028 31.5124 88.3028 31.7258C88.3028 31.9392 88.3504 32.1526 88.4455 32.2948C88.5407 32.4608 88.6596 32.5794 88.8024 32.6742C88.9451 32.7691 89.1354 32.7928 89.3257 32.7928C89.5161 32.7928 89.7064 32.7454 89.8491 32.6742C89.9918 32.6031 90.1346 32.4608 90.2297 32.2948C90.3249 32.1289 90.3725 31.9392 90.3725 31.7258C90.3725 31.5124 90.3249 31.299 90.2297 31.1567ZM90.2297 31.1567C90.1346 30.9907 90.0156 30.8722 89.8491 30.7773C89.6826 30.6825 89.5161 30.6588 89.3257 30.6588C89.1354 30.6588 88.9451 30.7062 88.8024 30.7773C88.6359 30.8722 88.5169 30.9907 88.4455 31.1567C88.3504 31.3227 88.3028 31.5124 88.3028 31.7258C88.3028 31.9392 88.3504 32.1526 88.4455 32.2948C88.5407 32.4608 88.6596 32.5794 88.8024 32.6742C88.9451 32.7691 89.1354 32.7928 89.3257 32.7928C89.5161 32.7928 89.7064 32.7454 89.8491 32.6742C89.9918 32.6031 90.1346 32.4608 90.2297 32.2948C90.3249 32.1289 90.3725 31.9392 90.3725 31.7258C90.3725 31.5124 90.3249 31.299 90.2297 31.1567Z" fill="#E1110E"/>
<path fill-rule="evenodd" clip-rule="evenodd" d="M43.8184 22.9763L48.1955 11.0732H51.2643L55.6177 22.9763H52.3824L51.5736 20.7H47.577L46.7682 22.9763H43.8421H43.8184ZM48.4334 18.3526H50.6934L49.5753 14.8196L48.4572 18.3526H48.4334ZM56.9737 22.9763V11.0732H62.683C64.0866 11.0732 65.1095 11.3577 65.728 11.9031C66.3703 12.4485 66.6796 13.2309 66.6796 14.2505C66.6796 15.2701 66.513 15.3887 66.2038 15.8155C65.8945 16.2423 65.4663 16.5742 64.9192 16.7639C65.6091 16.9299 66.1562 17.2382 66.5844 17.7361C66.9888 18.2103 67.2029 18.8505 67.2029 19.6093C67.2029 20.3681 67.0602 20.8897 66.7509 21.4113C66.4417 21.9093 65.9897 22.3124 65.3474 22.5732C64.7051 22.834 63.8725 22.9763 62.8495 22.9763H56.9499H56.9737ZM60.0662 20.6289H62.2072C62.9447 20.6289 63.4681 20.5103 63.7535 20.2969C64.039 20.0835 64.1817 19.7278 64.1817 19.2773C64.1817 18.8268 64.039 18.4711 63.7535 18.234C63.4681 17.9969 62.9447 17.9021 62.1834 17.9021H60.09V20.6526L60.0662 20.6289ZM60.0662 15.8155H61.9694C62.6354 15.8155 63.0874 15.7206 63.3015 15.5072C63.5394 15.2938 63.6584 15.0093 63.6584 14.6062C63.6584 14.2031 63.5394 13.9186 63.3015 13.7052C63.0636 13.5155 62.6354 13.3969 61.9694 13.3969H60.0662V15.7918V15.8155ZM71.7466 22.9763V13.5866H68.0831V11.0732H78.5027V13.5866H74.8392V22.9763H71.7704H71.7466ZM85.235 23.2134C84.4499 23.2134 83.7125 23.0949 83.0226 22.8815C82.3089 22.6443 81.6904 22.2887 81.1671 21.8144C80.6437 21.3165 80.2155 20.7 79.9062 19.9175C79.597 19.1351 79.4543 18.2103 79.4543 17.1433V16.8114C79.4543 15.7681 79.597 14.867 79.9062 14.132C80.2155 13.3732 80.6437 12.7804 81.1671 12.3062C81.6904 11.832 82.3327 11.4763 83.0226 11.2629C83.7363 11.0258 84.4737 10.9309 85.235 10.9309C85.9962 10.9309 86.7813 11.0495 87.4711 11.2629C88.161 11.5 88.7795 11.832 89.3267 12.3062C89.85 12.7804 90.2782 13.3969 90.5875 14.132C90.8968 14.8907 91.0395 15.7681 91.0395 16.8114V17.1433C91.0395 18.2103 90.8968 19.1588 90.5875 19.9175C90.2782 20.7 89.85 21.3165 89.3267 21.8144C88.8033 22.3124 88.1848 22.6681 87.4711 22.8815C86.7813 23.1186 86.02 23.2134 85.235 23.2134ZM85.2112 20.6526C85.687 20.6526 86.1152 20.5577 86.5196 20.3443C86.924 20.1309 87.2332 19.7753 87.4949 19.2773C87.7328 18.7794 87.8518 18.0443 87.8518 17.1196V16.7876C87.8518 15.9103 87.7328 15.2227 87.4949 14.7248C87.257 14.2268 86.924 13.8949 86.5196 13.7052C86.1152 13.5155 85.687 13.4206 85.2112 13.4206C84.7354 13.4206 84.3548 13.5155 83.9504 13.7052C83.546 13.8949 83.2367 14.2268 82.975 14.7248C82.7133 15.2227 82.5944 15.9103 82.5944 16.7876V17.1196C82.5944 18.0443 82.7133 18.7557 82.975 19.2773C83.2367 19.7753 83.546 20.1309 83.9504 20.3443C84.3548 20.5577 84.7592 20.6526 85.2112 20.6526ZM93.014 22.9763V11.0732H103.434V22.9763H100.365V13.5866H96.1065V22.9763H93.0378H93.014ZM104.766 22.9763L109.143 11.0732H112.212L116.565 22.9763H113.33L112.521 20.7H108.524L107.716 22.9763H104.79H104.766ZM109.381 18.3526H111.641L110.523 14.8196L109.405 18.3526H109.381ZM117.921 22.9763V11.0732H122.798C123.916 11.0732 124.82 11.2392 125.557 11.5474C126.271 11.8794 126.818 12.3299 127.151 12.9464C127.508 13.5629 127.675 14.2742 127.675 15.1278C127.675 15.9814 127.508 16.6928 127.151 17.3093C126.794 17.9258 126.271 18.4 125.557 18.7083C124.844 19.0402 123.916 19.1825 122.798 19.1825H121.014V22.9526H117.945L117.921 22.9763ZM120.99 16.6928H122.441C123.226 16.6928 123.773 16.5742 124.106 16.2897C124.415 16.0289 124.582 15.6495 124.582 15.1278C124.582 14.6062 124.415 14.2268 124.106 13.966C123.797 13.7052 123.226 13.5866 122.441 13.5866H120.99V16.6928ZM132.194 22.9763V13.5866H128.531V11.0732H138.95V13.5866H135.287V22.9763H132.218H132.194ZM140.473 22.9763V11.0732H143.542V15.6021H147.99V11.0732H151.059V22.9763H147.99V18.1155H143.542V22.9763H140.473ZM153.462 22.9763V11.0732H162.169V13.4206H156.531V15.7443H161.645V17.9495H156.531V20.6289H162.169V22.9763H153.462ZM164.119 22.9763V11.0732H168.996C170.114 11.0732 171.018 11.2392 171.756 11.5474C172.469 11.8794 173.016 12.3299 173.349 12.9464C173.706 13.5629 173.873 14.2742 173.873 15.1278C173.873 15.9814 173.706 16.6928 173.349 17.3093C172.993 17.9258 172.469 18.4 171.756 18.7083C171.042 19.0402 170.114 19.1825 168.996 19.1825H167.212V22.9526H164.143L164.119 22.9763ZM167.188 16.6928H168.639C169.424 16.6928 169.971 16.5742 170.304 16.2897C170.614 16.0289 170.78 15.6495 170.78 15.1278C170.78 14.6062 170.614 14.2268 170.304 13.966C169.995 13.7052 169.424 13.5866 168.639 13.5866H167.188V16.6928Z" fill="#000404"/>
<path fill-rule="evenodd" clip-rule="evenodd" d="M96.75 30.0185V33.5041H97.5588V30.7299H99.4143V30.0423H96.7262L96.75 30.0185ZM116.305 28.6433C116.305 28.8093 116.257 28.9278 116.162 29.0227C116.067 29.1175 115.924 29.1649 115.757 29.1649C115.591 29.1649 115.448 29.1175 115.353 29.0227C115.258 28.9278 115.21 28.8093 115.21 28.6433H114.663C114.663 28.9515 114.758 29.1886 114.949 29.3546C115.139 29.5206 115.401 29.5917 115.757 29.5917C116.114 29.5917 116.376 29.5206 116.566 29.3546C116.756 29.1886 116.852 28.9515 116.852 28.6433H116.305ZM116.828 30.0185L114.901 32.3185V30.0185H114.092V33.5041H114.853L116.78 31.2041V33.5041H117.589V30.0185H116.852H116.828ZM112.046 30.0185V33.5041H112.855V30.0185H112.046ZM133.694 33.4804V29.9948H132.933L131.625 32.1763L130.388 29.9948H129.531V33.4804H130.269V31.1804L131.434 33.1247H131.791L132.957 31.2041V33.5041H133.694V33.4804Z" fill="white"/>
<path fill-rule="evenodd" clip-rule="evenodd" d="M128.338 30.8245C128.171 30.5638 127.957 30.3504 127.672 30.2082C127.386 30.0659 127.077 29.9711 126.72 29.9711C126.364 29.9711 126.054 30.0422 125.769 30.2082C125.484 30.3741 125.27 30.5638 125.103 30.8482C124.937 31.109 124.865 31.4172 124.865 31.7728C124.865 32.1284 124.937 32.4128 125.103 32.6973C125.27 32.9581 125.484 33.1714 125.769 33.3374C126.054 33.4796 126.364 33.5744 126.72 33.5744C127.077 33.5744 127.41 33.5033 127.672 33.3374C127.957 33.1714 128.171 32.9818 128.338 32.6973C128.504 32.4366 128.575 32.1284 128.575 31.7728C128.575 31.4172 128.504 31.109 128.338 30.8482V30.8245ZM127.624 32.318C127.529 32.484 127.41 32.6025 127.244 32.6973C127.101 32.7921 126.911 32.8159 126.72 32.8159C126.53 32.8159 126.34 32.7684 126.197 32.6973C126.054 32.6025 125.935 32.484 125.84 32.318C125.745 32.1521 125.698 31.9624 125.698 31.7491C125.698 31.5357 125.745 31.3224 125.84 31.1801C125.935 31.0379 126.054 30.8957 126.197 30.8008C126.364 30.7297 126.53 30.6823 126.72 30.6823C126.911 30.6823 127.101 30.7297 127.244 30.8008C127.41 30.8957 127.529 31.0142 127.624 31.1801C127.719 31.3461 127.767 31.5357 127.767 31.7491C127.767 31.9624 127.719 32.1758 127.624 32.318Z" fill="white"/>
<path fill-rule="evenodd" clip-rule="evenodd" d="M123.796 32.7922V30.0186H120.918L120.87 31.2039C120.87 31.4172 120.87 31.6069 120.823 31.7965C120.823 31.9862 120.775 32.1521 120.728 32.3181C120.68 32.4603 120.609 32.5788 120.537 32.6737C120.466 32.7448 120.347 32.7922 120.228 32.7922H120.109V34.262H120.87V33.4797H123.558V34.262H124.319V32.7922H123.796ZM121.251 32.7922C121.251 32.7922 121.299 32.7448 121.322 32.7211C121.394 32.6263 121.465 32.484 121.489 32.3418C121.536 32.1758 121.56 32.0099 121.584 31.8203C121.584 31.6306 121.608 31.441 121.632 31.2513V30.7061H122.987V32.7922H121.275H121.251Z" fill="white"/>
<path fill-rule="evenodd" clip-rule="evenodd" d="M111.237 31.4647C110.999 31.2513 110.666 31.1565 110.214 31.1565H109.334V30.0186H108.525V33.5034H110.048H110.095C110.571 33.5034 110.928 33.4086 111.189 33.1952C111.451 32.9819 111.57 32.6974 111.57 32.3181C111.57 31.9388 111.451 31.678 111.213 31.4647H111.237ZM110.571 32.7448C110.452 32.8396 110.285 32.887 110.048 32.887H109.334V31.7017H110.024C110.262 31.7017 110.428 31.7491 110.547 31.844C110.666 31.9388 110.737 32.081 110.737 32.2707C110.737 32.4603 110.666 32.6263 110.547 32.7211L110.571 32.7448Z" fill="white"/>
<path fill-rule="evenodd" clip-rule="evenodd" d="M107.215 31.844C107.12 31.7728 107.001 31.7254 106.859 31.678C106.93 31.678 107.001 31.6069 107.073 31.5595C107.311 31.3935 107.406 31.1802 107.406 30.8957C107.406 30.6112 107.287 30.3742 107.049 30.2319C106.811 30.066 106.478 29.9949 106.05 29.9949H104.361V33.4797H106.145C106.621 33.4797 106.954 33.3848 107.192 33.2189C107.429 33.053 107.548 32.8159 107.548 32.5077C107.548 32.1995 107.453 31.9862 107.239 31.844H107.215ZM105.122 30.6112H105.979C106.193 30.6112 106.335 30.6349 106.454 30.7061C106.573 30.7772 106.621 30.872 106.621 31.0142C106.621 31.1565 106.573 31.2513 106.454 31.3224C106.359 31.3935 106.193 31.4409 105.979 31.4409H105.122V30.5875V30.6112ZM106.549 32.7922C106.431 32.8633 106.264 32.9107 106.05 32.9107H105.122V32.0099H106.074C106.288 32.0099 106.454 32.0336 106.573 32.1284C106.692 32.2233 106.74 32.3181 106.74 32.4603C106.74 32.6026 106.692 32.7211 106.573 32.7922H106.549Z" fill="white"/>
<path fill-rule="evenodd" clip-rule="evenodd" d="M103.172 30.8245C103.005 30.5638 102.791 30.3504 102.506 30.2082C102.22 30.0659 101.911 29.9711 101.554 29.9711C101.198 29.9711 100.888 30.0422 100.603 30.2082C100.318 30.3741 100.104 30.5638 99.9371 30.8482C99.7706 31.109 99.6992 31.4172 99.6992 31.7728C99.6992 32.1284 99.7706 32.4128 99.9371 32.6973C100.104 32.9581 100.318 33.1714 100.603 33.3374C100.888 33.4796 101.198 33.5744 101.554 33.5744C101.911 33.5744 102.244 33.5033 102.506 33.3374C102.791 33.1714 103.005 32.9818 103.172 32.6973C103.338 32.4366 103.409 32.1284 103.409 31.7728C103.409 31.4172 103.338 31.109 103.172 30.8482V30.8245ZM102.458 32.318C102.363 32.484 102.244 32.6025 102.101 32.6973C101.959 32.7921 101.768 32.8159 101.554 32.8159C101.34 32.8159 101.174 32.7684 101.031 32.6973C100.888 32.6025 100.769 32.484 100.674 32.318C100.579 32.1521 100.532 31.9624 100.532 31.7491C100.532 31.5357 100.579 31.3224 100.674 31.1801C100.769 31.0379 100.888 30.8957 101.031 30.8008C101.198 30.7297 101.364 30.6823 101.554 30.6823C101.745 30.6823 101.935 30.7297 102.078 30.8008C102.22 30.8719 102.363 31.0142 102.434 31.1801C102.506 31.3461 102.577 31.5357 102.577 31.7491C102.577 31.9624 102.529 32.1758 102.434 32.318H102.458Z" fill="white"/>
<path fill-rule="evenodd" clip-rule="evenodd" d="M95.5842 30.8248C95.4414 30.5639 95.2273 30.3505 94.9657 30.2083C94.704 30.066 94.3947 29.9949 94.0617 29.9949H93.9665C93.7048 29.9949 93.4669 30.066 93.2766 30.1846C93.1577 30.2557 93.0388 30.3505 92.9436 30.4454C92.9436 30.4454 92.9436 30.4454 92.9198 30.4928V30.0423H92.1348V34.7846H92.9436V33.1011C93.0388 33.2196 93.1577 33.3145 93.2766 33.3856C93.4907 33.5041 93.7048 33.5753 93.9665 33.5753H94.0617C94.3947 33.5753 94.704 33.5042 94.9657 33.3619C95.2273 33.2196 95.4414 33.0062 95.5842 32.7454C95.7507 32.4846 95.8221 32.1763 95.8221 31.7969C95.8221 31.4175 95.7507 31.133 95.5842 30.8722V30.8248ZM94.8467 32.3186C94.7516 32.4846 94.6326 32.6031 94.4899 32.698C94.3234 32.7928 94.1568 32.8165 93.9665 32.8165C93.7762 32.8165 93.5859 32.7691 93.4432 32.698C93.2766 32.6031 93.1577 32.4846 93.0625 32.3186C92.9912 32.2 92.9436 32.0341 92.9198 31.8681C92.9198 31.8207 92.9198 31.7732 92.9198 31.7258C92.9198 31.6784 92.9198 31.631 92.9198 31.5835C92.9198 31.4176 92.9674 31.2753 93.0625 31.133C93.1577 30.967 93.2766 30.8485 93.4432 30.7536C93.5859 30.6825 93.7762 30.6351 93.9665 30.6351C94.1568 30.6351 94.3471 30.6825 94.4899 30.7536C94.6326 30.8485 94.7516 30.967 94.8467 31.133C94.9419 31.299 94.9894 31.4887 94.9894 31.7021C94.9894 31.9155 94.9419 32.1289 94.8467 32.2712V32.3186Z" fill="white"/>
<path fill-rule="evenodd" clip-rule="evenodd" d="M90.9451 30.8245C90.7786 30.5638 90.5645 30.3504 90.2791 30.2082C89.9937 30.0659 89.6845 29.9711 89.3278 29.9711C88.971 29.9711 88.6618 30.0422 88.3764 30.2082C88.091 30.3741 87.877 30.5638 87.7105 30.8482C87.544 31.109 87.4727 31.4172 87.4727 31.7728C87.4727 32.1284 87.544 32.4128 87.7105 32.6973C87.877 32.9581 88.091 33.1714 88.3764 33.3374C88.6381 33.4796 88.971 33.5744 89.3278 33.5744C89.6845 33.5744 90.0175 33.5033 90.2791 33.3374C90.5645 33.1714 90.7786 32.9818 90.9451 32.6973C91.1116 32.4366 91.1829 32.1284 91.1829 31.7728C91.1829 31.4172 91.1116 31.109 90.9451 30.8482V30.8245ZM90.2316 32.318C90.1364 32.484 90.0175 32.6025 89.851 32.6973C89.6845 32.7921 89.5181 32.8159 89.3278 32.8159C89.1375 32.8159 88.971 32.7684 88.8045 32.6973C88.6381 32.6262 88.5191 32.484 88.4478 32.318C88.3527 32.1521 88.3051 31.9624 88.3051 31.7491C88.3051 31.5357 88.3527 31.3224 88.4478 31.1801C88.5429 31.0142 88.6618 30.8957 88.8045 30.8008C88.9472 30.7297 89.1375 30.6823 89.3278 30.6823C89.5181 30.6823 89.7083 30.7297 89.851 30.8008C89.9937 30.8719 90.1364 31.0142 90.2316 31.1801C90.3267 31.3461 90.3743 31.5357 90.3743 31.7491C90.3743 31.9624 90.3267 32.1758 90.2316 32.318Z" fill="white"/>
<path fill-rule="evenodd" clip-rule="evenodd" d="M87.1842 30.0186V30.7061H85.9712V33.4797H85.1625V30.7061H83.9258V30.0186H87.1842Z" fill="white"/>
</g>
<defs>
<clipPath id="clip0_2003_1831">
<rect width="176.038" height="46" fill="white"/>
</clipPath>
</defs>
</svg>
