<svg width="16" height="16" viewBox="0 0 16 16" fill="none" xmlns="http://www.w3.org/2000/svg">
<path d="M13.5528 4.14706C13.8233 4.14706 14.0426 3.92775 14.0426 3.65728C14.0426 3.38678 13.8232 3.1675 13.5528 3.1675H13.063V2.28572H13.5528C13.8233 2.28572 14.0426 2.06641 14.0426 1.79594C14.0426 1.52544 13.8232 1.30616 13.5528 1.30616H12.5732H12.2423V0.972562C12.4749 0.934531 12.6526 0.733156 12.6526 0.489781C12.6526 0.219313 12.4333 0 12.1628 0C11.673 0 10.3123 0 9.75934 0C9.48884 0 9.26956 0.219313 9.26956 0.489781C9.26956 0.733187 9.44725 0.934531 9.67988 0.972562V1.30613C9.45972 1.30613 2.81944 1.30613 2.45075 1.30613C2.18025 1.30613 1.96097 1.52544 1.96097 1.79591C1.96097 2.06641 2.18028 2.28569 2.45075 2.28569H2.94053V3.16744H2.45072C2.18022 3.16744 1.96094 3.38675 1.96094 3.65722C1.96094 3.92772 2.18025 4.147 2.45072 4.147H2.9405V13.1589H2.45072C2.18022 13.1589 1.96094 13.3783 1.96094 13.6487C1.96094 13.9192 2.18025 14.1385 2.45072 14.1385H2.9405V15.0203H2.45072C2.18022 15.0203 1.96094 15.2396 1.96094 15.5101C1.96094 15.7806 2.18022 16 2.45072 16C2.94675 16 13.2779 16 13.5527 16C13.8232 16 14.0425 15.7807 14.0425 15.5102C14.0425 15.2397 13.8232 15.0204 13.5527 15.0204H13.063V14.1387H13.5527C13.8232 14.1387 14.0425 13.9194 14.0425 13.6489C14.0425 13.3784 13.8232 13.1591 13.5527 13.1591H13.063V4.14706H13.5528ZM10.6595 0.979594H11.2627V1.30613H10.6595V0.979594ZM12.0834 15.0204H3.92013V14.1387H12.0834V15.0204ZM12.0834 13.1591H3.92013V4.14706H12.0834V13.1591ZM12.0834 3.16747H3.92013V2.28572C4.00028 2.28572 11.9584 2.28572 12.0834 2.28572V3.16747Z" fill="#E1110E"/>
<path d="M8.401 6.37663C8.20641 6.09797 7.79278 6.0976 7.59791 6.37663C7.15481 7.01025 6.17188 8.53569 6.17188 9.31128C6.17191 10.319 6.99175 11.1388 7.99947 11.1388C9.00719 11.1388 9.82703 10.319 9.82703 9.31128C9.82703 8.53544 8.8435 7.00941 8.401 6.37663ZM7.99947 10.1593C7.53191 10.1593 7.1515 9.77885 7.1515 9.31128C7.1515 9.08335 7.46656 8.38929 7.99838 7.54428C8.45628 8.27641 8.84741 9.0391 8.84741 9.31128C8.84744 9.77885 8.46703 10.1593 7.99947 10.1593Z" fill="#E1110E"/>
</svg>
