<svg width="16" height="16" viewBox="0 0 16 16" fill="none" xmlns="http://www.w3.org/2000/svg">
<path d="M14.768 3.13428L13.0689 0.798344C12.9216 0.59575 12.641 0.544813 12.4318 0.68275L11.3158 1.41862L10.7113 0.582406C10.4477 0.217719 10.0217 0 9.57169 0H2.55078C1.77537 0 1.14453 0.630844 1.14453 1.40625V14.5938C1.14453 15.3692 1.77537 16 2.55078 16H12.8633C13.6387 16 14.2695 15.3692 14.2695 14.5938V5.95962C14.2695 5.66194 14.1773 5.37703 14.0029 5.13578L13.5495 4.50853L14.6428 3.80406C14.8692 3.65816 14.9262 3.35181 14.768 3.13428ZM13.332 14.5938C13.332 14.8522 13.1217 15.0625 12.8633 15.0625H2.55078C2.29231 15.0625 2.08203 14.8522 2.08203 14.5938V1.40625C2.08203 1.14778 2.29231 0.9375 2.55078 0.9375H9.57169C9.72169 0.9375 9.86369 1.01006 9.95156 1.13163L13.2432 5.685C13.3013 5.76544 13.332 5.86041 13.332 5.95962V14.5938ZM12.9995 3.74766L11.8656 2.17909L12.5741 1.71187L13.7181 3.28463L12.9995 3.74766Z" fill="#000404"/>
<path d="M8.12628 7.79037C7.954 7.44568 7.46028 7.44521 7.28778 7.79037C6.83812 8.68971 5.36328 10.165 5.36328 11.75C5.36328 13.0423 6.41469 14.0937 7.70703 14.0937C8.99937 14.0937 10.0508 13.0423 10.0508 11.75C10.0508 10.165 8.57591 8.68962 8.12628 7.79037ZM7.70703 13.1562C6.93163 13.1562 6.30078 12.5254 6.30078 11.75C6.30078 10.7926 7.12375 9.75509 7.70703 8.89712C8.2905 9.7554 9.11328 10.7927 9.11328 11.75C9.11328 12.5254 8.48247 13.1562 7.70703 13.1562Z" fill="#000404"/>
<path d="M8.97069 3.97581L7.61847 2.10081C7.53037 1.97862 7.38891 1.90625 7.23828 1.90625H3.48828C3.22941 1.90625 3.01953 2.11612 3.01953 2.375V4.25C3.01953 4.50887 3.22941 4.71875 3.48828 4.71875H8.5905C8.97206 4.71875 9.19394 4.28537 8.97069 3.97581ZM3.95703 3.78125V2.84375H6.99841L7.6745 3.78125H3.95703Z" fill="#000404"/>
</svg>
