<svg width="16" height="16" viewBox="0 0 16 16" fill="none" xmlns="http://www.w3.org/2000/svg">
<g clip-path="url(#clip0_768_24802)">
<path d="M15.0311 3.72217C15.0267 3.45874 14.9187 3.21436 14.7269 3.03406L13.9636 2.31641C13.5815 1.95715 12.9922 1.9668 12.6219 2.33826L11.915 3.04773C11.6104 2.87268 11.2638 2.77917 10.905 2.77917H10.2593C10.0321 1.20959 8.68164 0 7.05481 0H2.76709C1.77551 0 0.96875 0.848267 0.96875 1.89099V14.109C0.96875 15.1517 1.77551 16 2.76709 16H12.5958C13.5875 16 14.3942 15.1517 14.3942 14.109V6.19055C14.3942 5.80029 14.2819 5.42004 14.0772 5.09509L14.7496 4.42029C14.9354 4.23364 15.0354 3.98584 15.0311 3.72217ZM7.05481 0.9375C8.16345 0.9375 9.09155 1.72913 9.30786 2.77917H8.07703C6.59045 2.77917 5.17493 2.1366 4.19312 1.01599L4.12439 0.9375H7.05481ZM13.4567 14.109C13.4567 14.6348 13.0706 15.0625 12.5958 15.0625H2.76709C2.29248 15.0625 1.90625 14.6348 1.90625 14.109V1.89099C1.90625 1.36523 2.29248 0.9375 2.76709 0.9375H2.87793L3.48804 1.63379C4.64771 2.95752 6.32031 3.71667 8.07691 3.71667H10.905C11.1859 3.71667 11.4531 3.82324 11.6573 4.01685C12.04 4.37976 12.6014 4.91003 13.1023 5.37549C13.3275 5.58484 13.4567 5.88184 13.4567 6.19043V14.109ZM14.0855 3.75854L13.4402 4.40601L12.6372 3.65125L13.2861 3.00012C13.296 2.99011 13.3113 2.98987 13.3214 2.99939L14.0848 3.71704V3.71716C14.0873 3.71936 14.0935 3.72534 14.0938 3.73755C14.094 3.75 14.0878 3.75623 14.0855 3.75854Z" fill="#000404"/>
<path d="M10.7751 6.99414C10.9581 6.81116 10.9581 6.51428 10.7751 6.3313C10.592 6.14819 10.2953 6.14819 10.1122 6.3313L9.02576 7.4176H6.14832L5.06189 6.3313C4.87891 6.14819 4.58203 6.14819 4.39905 6.3313C4.21594 6.51428 4.21594 6.81104 4.39905 6.99414L5.48535 8.08057V10.9581L4.39905 12.0444C4.21594 12.2275 4.21594 12.5243 4.39905 12.7074C4.4906 12.799 4.61047 12.8447 4.73047 12.8447C4.85046 12.8447 4.97046 12.799 5.06189 12.7074L6.14832 11.621H9.02576L10.1122 12.7074C10.2037 12.799 10.3237 12.8447 10.4436 12.8447C10.5636 12.8447 10.6836 12.799 10.775 12.7074C10.9581 12.5243 10.9581 12.2275 10.775 12.0444L9.68872 10.9581V8.08057L10.7751 6.99414ZM8.75122 10.6835H6.42285V8.3551H8.75122V10.6835Z" fill="#000404"/>
</g>
<defs>
<clipPath id="clip0_768_24802">
<rect width="16" height="16" fill="white"/>
</clipPath>
</defs>
</svg>
