<svg width="16" height="16" viewBox="0 0 16 16" fill="none" xmlns="http://www.w3.org/2000/svg">
<path d="M6.14722 11.2307C5.55347 11.2307 5.07031 11.7139 5.07031 12.3077V13.5385C5.07031 14.1323 5.55347 14.6154 6.14722 14.6154H9.22412C9.81799 14.6154 10.3011 14.1323 10.3011 13.5385V12.3077C10.3011 11.7139 9.81799 11.2307 9.22412 11.2307H6.14722ZM9.37805 12.3077V13.5385C9.37805 13.6233 9.30896 13.6923 9.22412 13.6923H6.14722C6.06238 13.6923 5.99341 13.6233 5.99341 13.5385V12.3077C5.99341 12.2229 6.06238 12.1538 6.14722 12.1538H9.22412C9.30896 12.1538 9.37805 12.2229 9.37805 12.3077Z" fill="#000404"/>
<path d="M11.9928 0H5.83899C5.70715 0 5.58154 0.0563965 5.49402 0.154907L4.26318 1.53955C4.22168 1.5863 4.19006 1.64087 4.17029 1.7002L3.95984 2.33142C3.8175 2.75879 3.88684 3.21338 4.15015 3.57886C4.41357 3.94434 4.823 4.15381 5.27344 4.15381H5.37744V5.96265L3.93677 7.40332C3.67529 7.66479 3.53125 8.01245 3.53125 8.38232V14.6154C3.53125 15.3789 4.15234 16 4.91589 16H10.4543C11.2178 16 11.839 15.3789 11.839 14.6154V10.8439C11.839 10.474 11.6949 10.1263 11.4333 9.86487L10.1279 8.55945C10.0408 8.47217 9.9928 8.35632 9.9928 8.23303V4.39661L10.0272 4.31055L10.3706 4.85999C10.4312 4.95679 10.5254 5.02783 10.6353 5.0592L11.7122 5.36682C11.7545 5.37903 11.7972 5.38477 11.8392 5.38477C12.04 5.38477 12.2247 5.25256 12.2827 5.04993C12.3528 4.80481 12.2108 4.54932 11.9657 4.47925L11.0593 4.22034L10.452 3.24854L10.4786 3.18176L12.0687 2.91675C12.2913 2.87976 12.4543 2.68713 12.4543 2.46155V0.461548C12.4543 0.206665 12.2477 0 11.9928 0ZM6.30054 4.76929H9.0697V5.69226H6.30054V4.76929ZM5.27344 3.23071C5.12329 3.23071 4.98694 3.16089 4.89905 3.03906C4.81128 2.91736 4.78809 2.76575 4.83557 2.62329L5.01599 2.08191L6.04626 0.923096H9.9928V2.33423C9.86877 2.37817 9.76794 2.47339 9.71814 2.59778L9.21875 3.84619H6.30054V3.69226C6.30054 3.43738 6.09387 3.23071 5.83899 3.23071H5.27344ZM10.7806 10.5175C10.8678 10.6047 10.9159 10.7206 10.9159 10.8439V14.6154C10.9159 14.8699 10.7089 15.0769 10.4543 15.0769H4.91589C4.66138 15.0769 4.45435 14.8699 4.45435 14.6154V8.38232C4.45435 8.25903 4.50232 8.14319 4.58948 8.05603L6.03015 6.61536H9.0697V8.23303C9.0697 8.60291 9.21375 8.95056 9.47522 9.21204L10.7806 10.5175ZM11.5312 2.07056L10.9159 2.1731V0.923096H11.5312V2.07056Z" fill="#000404"/>
<path d="M6.76221 10.6154H8.6084C8.86328 10.6154 9.06995 10.4087 9.06995 10.1538C9.06995 9.89893 8.86328 9.69226 8.6084 9.69226H6.76221C6.50732 9.69226 6.30078 9.89893 6.30078 10.1538C6.30078 10.4087 6.50732 10.6154 6.76221 10.6154Z" fill="#000404"/>
</svg>
