<svg width="16" height="16" viewBox="0 0 16 16" fill="none" xmlns="http://www.w3.org/2000/svg">
<path d="M10.7981 6.17605C9.50922 5.18962 8.92863 3.69087 8.76097 3.18155L9.64731 1.7043C9.75797 1.51987 9.72891 1.28377 9.57681 1.13168L8.5825 0.137304C8.43041 -0.0147897 8.19431 -0.0438522 8.00988 0.0668041L6.37353 1.04862C6.14075 1.16799 4.25 2.25674 4.25 6.09374V14.5937C4.25 15.3691 4.88084 16 5.65625 16H10.3438C11.1192 16 11.75 15.3691 11.75 14.5937V8.0543C11.75 7.32365 11.4031 6.63905 10.7981 6.17605ZM8.17838 1.05899L8.65516 1.53577L8.15822 2.36399L7.35012 1.55593L8.17838 1.05899ZM10.8125 14.5937C10.8125 14.8522 10.6022 15.0625 10.3438 15.0625H5.65625C5.39778 15.0625 5.1875 14.8522 5.1875 14.5937V6.09374C5.1875 4.32274 5.63103 3.26893 6.00313 2.69671C6.19653 2.3993 6.39097 2.19846 6.53922 2.07084L7.83578 3.36737C7.98809 3.87071 8.62988 5.69715 10.2283 6.92052C10.5996 7.20468 10.8125 7.61793 10.8125 8.0543V14.5937Z" fill="#000404"/>
<path d="M8 8.4375C6.96613 8.4375 6.125 9.27863 6.125 10.3125C6.125 11.3464 6.96613 12.1875 8 12.1875C9.03387 12.1875 9.875 11.3464 9.875 10.3125C9.875 9.27863 9.03387 8.4375 8 8.4375ZM8 11.25C7.48306 11.25 7.0625 10.8294 7.0625 10.3125C7.0625 9.79556 7.48306 9.375 8 9.375C8.51694 9.375 8.9375 9.79556 8.9375 10.3125C8.9375 10.8294 8.51694 11.25 8 11.25Z" fill="#000404"/>
</svg>
