<svg width="16" height="16" viewBox="0 0 16 16" fill="none" xmlns="http://www.w3.org/2000/svg">
<path d="M12.1257 0.573219C11.0632 0.219063 9.6735 0.0174687 8.19428 0.00121875C8.19416 0.00121875 8.194 0.00121875 8.19388 0.00121875C8.12941 0.0005 8.06481 0 8 0C7.93519 0 7.87059 0.0005 7.80613 0.0011875C7.806 0.0011875 7.80584 0.0011875 7.80572 0.0011875C6.3265 0.0174375 4.93684 0.219031 3.87431 0.573219C2.24775 1.11541 1.90628 1.83525 1.90625 2.34369V11.75V11.7501C1.90628 12.1253 2.09244 12.6157 2.84375 13.0648V14.125C2.84375 14.9139 3.79462 15.3415 4.55075 15.5684C5.47856 15.8467 6.70356 16 8 16C9.29644 16 10.5214 15.8467 11.4493 15.5683C12.2052 15.3416 13.1562 14.914 13.1562 14.125V13.0649C13.9076 12.6157 14.0938 12.1253 14.0938 11.75V2.34369C14.0937 1.83525 13.7522 1.11541 12.1257 0.573219ZM8 0.9375C8.86647 0.9375 10.3994 1.03719 11.1457 1.40625C10.4094 1.77034 8.89722 1.875 8 1.875C7.10512 1.875 5.58591 1.76813 4.85431 1.40625C5.59044 1.04216 7.10256 0.9375 8 0.9375ZM3.52697 12.3703C3.00116 12.1077 2.84375 11.8643 2.84375 11.75V3.65859C3.09069 3.80622 3.39872 3.94934 3.78125 4.0825C3.78125 4.47703 3.78125 12.1163 3.78125 12.486C3.69209 12.4488 3.61059 12.4117 3.5365 12.375C3.53341 12.3733 3.53013 12.3719 3.52697 12.3703ZM12.2188 14.1203C12.1966 14.1855 11.9456 14.4592 11.0575 14.7057C10.2287 14.9358 9.14284 15.0625 8 15.0625C6.85713 15.0625 5.77131 14.9358 4.9425 14.7057C4.05447 14.4592 3.80344 14.1855 3.78125 14.1203V13.4888C5.05794 13.9326 6.64275 14.0938 8 14.0938C9.3495 14.0938 10.94 13.9339 12.2188 13.4888V14.1203ZM4.71875 12.7906C4.71875 12.644 4.71875 4.63856 4.71875 4.34831C5.01625 4.41637 5.32981 4.47481 5.65625 4.52297V12.9814C5.32619 12.9289 5.01228 12.8651 4.71875 12.7906ZM6.59375 13.0958V4.63019C6.89972 4.65559 7.21303 4.67266 7.53125 4.68116V13.1496C7.21178 13.1407 6.89838 13.1226 6.59375 13.0958ZM8.46875 13.1496V4.68116C8.78697 4.67269 9.10028 4.65559 9.40625 4.63019V13.0958C9.10162 13.1226 8.78822 13.1407 8.46875 13.1496ZM10.3438 12.9814V4.52297C10.6702 4.47481 10.9838 4.41637 11.2812 4.34831C11.2812 4.63963 11.2812 12.6443 11.2812 12.7906C10.9877 12.8652 10.6738 12.9289 10.3438 12.9814ZM13.1562 11.7501C13.1562 11.8643 12.9988 12.1077 12.473 12.3704C12.4265 12.3942 12.3236 12.4423 12.2188 12.486C12.2188 12.1183 12.2188 4.47878 12.2188 4.0825C12.6013 3.94934 12.9093 3.80619 13.1562 3.65859V11.7501ZM11.8293 3.22487C10.6643 3.61328 9.22319 3.75 8 3.75C4.85262 3.75 2.84375 2.87656 2.84375 2.34375C2.84375 2.21131 3.05512 1.90544 3.80653 1.59716C4.09559 2.668 6.89087 2.8125 8 2.8125C9.10925 2.8125 11.9044 2.66797 12.1935 1.59716C12.9449 1.90544 13.1562 2.21131 13.1562 2.34375C13.1562 2.4955 12.8789 2.875 11.8293 3.22487Z" fill="#000404"/>
</svg>
