<svg width="24" height="24" viewBox="0 0 24 24" fill="none" xmlns="http://www.w3.org/2000/svg">
<path d="M7.65046 4C6.96123 4 6.38195 4 5.92246 4.06152C5.43508 4.12713 4.98954 4.27231 4.63097 4.63075C4.27241 4.98918 4.12718 5.43456 4.06154 5.92177C4 6.38109 4 6.96017 4 7.64915V7.73199C4 8.42098 4 9.00005 4.06154 9.45937C4.12718 9.94658 4.27241 10.392 4.63097 10.7504C4.98954 11.1088 5.43508 11.254 5.92246 11.3196C6.38195 11.3811 6.96123 11.3811 7.65046 11.3811H7.73333C8.42256 11.3811 9.00185 11.3811 9.46133 11.3196C9.94872 11.254 10.3943 11.1088 10.7528 10.7504C11.1114 10.392 11.2566 9.94658 11.3223 9.45937C11.3838 9.00005 11.3838 8.42098 11.3838 7.73199V7.64997C11.3838 6.96099 11.3838 6.38191 11.3223 5.92259C11.2566 5.43538 11.1114 4.99 10.7528 4.63157C10.3943 4.27313 9.94872 4.12795 9.46133 4.06234C9.00185 4.00082 8.42256 4.00082 7.73333 4.00082L7.65046 4ZM16.2658 4C15.5766 4 14.9973 4 14.5378 4.06152C14.0505 4.12713 13.6049 4.27231 13.2464 4.63075C12.8878 4.98918 12.7426 5.43456 12.6769 5.92177C12.6154 6.38109 12.6154 6.96017 12.6154 7.64915V7.73199C12.6154 8.42098 12.6154 9.00005 12.6769 9.45937C12.7426 9.94658 12.8878 10.392 13.2464 10.7504C13.6049 11.1088 14.0505 11.254 14.5378 11.3196C14.9973 11.3811 15.5766 11.3811 16.2658 11.3811H16.3495C17.0388 11.3811 17.6181 11.3811 18.0775 11.3196C18.5649 11.254 19.0105 11.1088 19.369 10.7504C19.7276 10.392 19.8728 9.94658 19.9385 9.45937C20 9.00005 20 8.42098 20 7.73199V7.64997C20 6.96099 20 6.38191 19.9385 5.92259C19.8728 5.43538 19.7276 4.99 19.369 4.63157C19.0105 4.27313 18.5649 4.12795 18.0775 4.06234C17.6181 4.00082 17.0396 4.00082 16.3504 4.00082L16.2658 4ZM7.65046 12.618C6.96123 12.618 6.38195 12.618 5.92246 12.6796C5.43508 12.7452 4.98954 12.8903 4.63097 13.2488C4.27241 13.6072 4.12718 14.0526 4.06154 14.5398C4 14.9991 4 15.5782 4 16.2672V16.3508C4 17.0398 4 17.6189 4.06154 18.0782C4.12718 18.5654 4.27241 19.0108 4.63097 19.3693C4.98954 19.7277 5.43508 19.8729 5.92246 19.9385C6.38195 20 6.96123 20 7.65046 20H7.73333C8.42256 20 9.00185 20 9.46133 19.9385C9.94872 19.8729 10.3943 19.7277 10.7528 19.3693C11.1114 19.0108 11.2566 18.5654 11.3223 18.0782C11.3838 17.6189 11.3838 17.0398 11.3838 16.3508V16.2672C11.3838 15.5782 11.3838 14.9999 11.3223 14.5398C11.2566 14.0526 11.1114 13.6072 10.7528 13.2488C10.3943 12.8903 9.94872 12.7452 9.46133 12.6796C9.00185 12.618 8.42256 12.618 7.73333 12.618H7.65046ZM16.2658 12.618C15.5766 12.618 14.9973 12.618 14.5378 12.6796C14.0505 12.7452 13.6049 12.8903 13.2464 13.2488C12.8878 13.6072 12.7426 14.0526 12.6769 14.5398C12.6154 14.9991 12.6154 15.5782 12.6154 16.2672V16.3508C12.6154 17.0398 12.6154 17.6189 12.6769 18.0782C12.7426 18.5654 12.8878 19.0108 13.2464 19.3693C13.6049 19.7277 14.0505 19.8729 14.5378 19.9385C14.9973 20 15.5766 20 16.2658 20H16.3495C17.0388 20 17.6181 20 18.0775 19.9385C18.5649 19.8729 19.0105 19.7277 19.369 19.3693C19.7276 19.0108 19.8728 18.5654 19.9385 18.0782C20 17.6189 20 17.0398 20 16.3508V16.2672C20 15.5782 20 14.9999 19.9385 14.5398C19.8728 14.0526 19.7276 13.6072 19.369 13.2488C19.0105 12.8903 18.5649 12.7452 18.0775 12.6796C17.6181 12.618 17.0388 12.618 16.3504 12.618H16.2658Z" fill="#E1110E"/>
</svg>
