<svg width="25" height="24" viewBox="0 0 25 24" fill="none" xmlns="http://www.w3.org/2000/svg">
<path d="M19.7909 3.25411C20.4111 3.25411 20.9139 3.75688 20.9139 4.37707L20.9139 8.90709C20.9139 9.52729 20.4111 10.0301 19.7909 10.0301L15.2609 10.0301C14.6407 10.0301 14.1379 9.52729 14.1379 8.90709L14.1379 4.37707C14.1379 3.75688 14.6407 3.25411 15.2609 3.25411L19.7909 3.25411Z" stroke="#000404" stroke-width="1.5"/>
<path d="M19.7909 13.97C20.4111 13.97 20.9139 14.4727 20.9139 15.0929V19.623C20.9139 20.2432 20.4111 20.7459 19.7909 20.7459L15.2609 20.7459C14.6407 20.7459 14.1379 20.2432 14.1379 19.623V15.0929C14.1379 14.4727 14.6407 13.97 15.2609 13.97L19.7909 13.97Z" stroke="#000404" stroke-width="1.5"/>
<path d="M9.07505 3.25411C9.69524 3.25411 10.198 3.75688 10.198 4.37707V8.90709C10.198 9.52729 9.69524 10.0301 9.07504 10.0301L4.54502 10.0301C3.92483 10.0301 3.42206 9.52729 3.42206 8.90709L3.42206 4.37707C3.42206 3.75688 3.92483 3.25411 4.54502 3.25411H9.07505Z" stroke="#000404" stroke-width="1.5"/>
<path d="M9.07505 13.97C9.69524 13.97 10.198 14.4727 10.198 15.0929L10.198 19.623C10.198 20.2432 9.69524 20.7459 9.07504 20.7459L4.54502 20.7459C3.92483 20.7459 3.42206 20.2432 3.42206 19.623V15.0929C3.42206 14.4727 3.92483 13.97 4.54502 13.97L9.07505 13.97Z" stroke="#000404" stroke-width="1.5"/>
</svg>
