<svg width="16" height="16" viewBox="0 0 16 16" fill="none" xmlns="http://www.w3.org/2000/svg">
<path d="M10.9717 8.82607C11.1839 8.64929 11.2125 8.33401 11.0358 8.12187C10.859 7.90973 10.5437 7.88107 10.3316 8.05785L10.9717 8.82607ZM7.99998 10.6517L7.67989 11.0358C7.86531 11.1903 8.13465 11.1903 8.32007 11.0358L7.99998 10.6517ZM5.6684 8.05785C5.45627 7.88107 5.14098 7.90973 4.9642 8.12187C4.78742 8.33401 4.81608 8.64929 5.02822 8.82607L5.6684 8.05785ZM8.49998 5.34835C8.49998 5.07221 8.27612 4.84835 7.99998 4.84835C7.72384 4.84835 7.49998 5.07221 7.49998 5.34835L8.49998 5.34835ZM10.6517 8.44196L10.3316 8.05785L7.67989 10.2676L7.99998 10.6517L8.32007 11.0358L10.9717 8.82607L10.6517 8.44196ZM7.99998 10.6517L8.32007 10.2676L5.6684 8.05785L5.34831 8.44196L5.02822 8.82607L7.67989 11.0358L7.99998 10.6517ZM7.99998 10.6517L8.49998 10.6517L8.49998 5.34835L7.99998 5.34835L7.49998 5.34835L7.49998 10.6517L7.99998 10.6517ZM12.2426 12.2426L11.8891 11.8891C9.7412 14.037 6.2588 14.037 4.11091 11.8891L3.75736 12.2426L3.40381 12.5962C5.94221 15.1346 10.0578 15.1346 12.5962 12.5962L12.2426 12.2426ZM3.75736 12.2426L4.11091 11.8891C1.96303 9.7412 1.96303 6.2588 4.11091 4.11091L3.75736 3.75736L3.40381 3.40381C0.865398 5.94221 0.865398 10.0578 3.40381 12.5962L3.75736 12.2426ZM3.75736 3.75736L4.11091 4.11091C6.2588 1.96303 9.7412 1.96303 11.8891 4.11091L12.2426 3.75736L12.5962 3.40381C10.0578 0.865398 5.94221 0.865398 3.40381 3.40381L3.75736 3.75736ZM12.2426 3.75736L11.8891 4.11091C14.037 6.2588 14.037 9.7412 11.8891 11.8891L12.2426 12.2426L12.5962 12.5962C15.1346 10.0578 15.1346 5.94221 12.5962 3.40381L12.2426 3.75736Z" fill="#808080"/>
</svg>
