<svg width="24" height="25" viewBox="0 0 24 25" fill="none" xmlns="http://www.w3.org/2000/svg">
<path d="M2.40039 2.74273C1.98618 2.74273 1.65039 3.07852 1.65039 3.49273C1.65039 3.90694 1.98618 4.24273 2.40039 4.24273V2.74273ZM4.69293 3.49273L5.41685 3.29667C5.3283 2.96974 5.03163 2.74273 4.69293 2.74273V3.49273ZM8.4183 17.248L7.69438 17.444C7.79208 17.8048 8.14047 18.0385 8.51133 17.9922L8.4183 17.248ZM19.881 15.8151L19.974 16.5593C20.2925 16.5195 20.5504 16.2814 20.6154 15.9671L19.881 15.8151ZM21.6004 7.50467L22.3348 7.65662C22.3805 7.43574 22.3244 7.20601 22.182 7.0311C22.0395 6.85619 21.826 6.75467 21.6004 6.75467V7.50467ZM5.77949 7.50467L5.05557 7.70073L5.77949 7.50467ZM2.40039 4.24273H4.69293V2.74273H2.40039V4.24273ZM8.51133 17.9922L19.974 16.5593L19.788 15.0709L8.32527 16.5037L8.51133 17.9922ZM20.6154 15.9671L22.3348 7.65662L20.8659 7.35272L19.1465 15.6632L20.6154 15.9671ZM3.96901 3.68879L5.05557 7.70073L6.50341 7.30861L5.41685 3.29667L3.96901 3.68879ZM5.05557 7.70073L7.69438 17.444L9.14222 17.0519L6.50341 7.30861L5.05557 7.70073ZM21.6004 6.75467H5.77949V8.25467H21.6004V6.75467ZM11.2504 21C11.2504 21.4142 10.9146 21.75 10.5004 21.75V23.25C11.743 23.25 12.7504 22.2426 12.7504 21H11.2504ZM10.5004 21.75C10.0862 21.75 9.75039 21.4142 9.75039 21H8.25039C8.25039 22.2426 9.25775 23.25 10.5004 23.25V21.75ZM9.75039 21C9.75039 20.5858 10.0862 20.25 10.5004 20.25V18.75C9.25775 18.75 8.25039 19.7574 8.25039 21H9.75039ZM10.5004 20.25C10.9146 20.25 11.2504 20.5858 11.2504 21H12.7504C12.7504 19.7574 11.743 18.75 10.5004 18.75V20.25ZM19.2504 21C19.2504 21.4142 18.9146 21.75 18.5004 21.75V23.25C19.743 23.25 20.7504 22.2426 20.7504 21H19.2504ZM18.5004 21.75C18.0862 21.75 17.7504 21.4142 17.7504 21H16.2504C16.2504 22.2426 17.2578 23.25 18.5004 23.25V21.75ZM17.7504 21C17.7504 20.5858 18.0862 20.25 18.5004 20.25V18.75C17.2578 18.75 16.2504 19.7574 16.2504 21H17.7504ZM18.5004 20.25C18.9146 20.25 19.2504 20.5858 19.2504 21H20.7504C20.7504 19.7574 19.743 18.75 18.5004 18.75V20.25Z" fill="#000404"/>
</svg>
