<svg width="20" height="20" viewBox="0 0 20 20" fill="none" xmlns="http://www.w3.org/2000/svg">
  <path d="M16.0377 3.07281C16.529 3.07281 16.9272 3.47102 16.9272 3.96225L16.9272 7.55024C16.9272 8.04146 16.529 8.43968 16.0377 8.43968L12.4497 8.43968C11.9585 8.43968 11.5603 8.04146 11.5603 7.55024L11.5603 3.96225C11.5603 3.47102 11.9585 3.07281 12.4497 3.07281L16.0377 3.07281Z" fill="white" />
  <path d="M16.0377 11.5603C16.529 11.5603 16.9272 11.9585 16.9272 12.4497L16.9272 16.0377C16.9272 16.5289 16.529 16.9272 16.0377 16.9272H12.4497C11.9585 16.9272 11.5603 16.5289 11.5603 16.0377L11.5603 12.4497C11.5603 11.9585 11.9585 11.5603 12.4497 11.5603H16.0377Z" fill="white" />
  <path d="M7.55026 3.07281C8.04148 3.07281 8.4397 3.47102 8.4397 3.96225V7.55024C8.4397 8.04146 8.04148 8.43968 7.55026 8.43968L3.96227 8.43968C3.47104 8.43968 3.07283 8.04146 3.07283 7.55024L3.07283 3.96225C3.07283 3.47102 3.47104 3.07281 3.96227 3.07281L7.55026 3.07281Z" fill="white" />
  <path d="M7.55026 11.5603C8.04148 11.5603 8.4397 11.9585 8.4397 12.4497V16.0377C8.4397 16.5289 8.04148 16.9272 7.55026 16.9272H3.96227C3.47104 16.9272 3.07283 16.5289 3.07283 16.0377L3.07283 12.4497C3.07283 11.9585 3.47104 11.5603 3.96227 11.5603L7.55026 11.5603Z" fill="white" />
  <path d="M16.0377 3.07281C16.529 3.07281 16.9272 3.47102 16.9272 3.96225L16.9272 7.55024C16.9272 8.04146 16.529 8.43968 16.0377 8.43968L12.4497 8.43968C11.9585 8.43968 11.5603 8.04146 11.5603 7.55024L11.5603 3.96225C11.5603 3.47102 11.9585 3.07281 12.4497 3.07281L16.0377 3.07281Z" stroke="white" stroke-width="1.5" />
  <path d="M16.0377 11.5603C16.529 11.5603 16.9272 11.9585 16.9272 12.4497L16.9272 16.0377C16.9272 16.5289 16.529 16.9272 16.0377 16.9272H12.4497C11.9585 16.9272 11.5603 16.5289 11.5603 16.0377L11.5603 12.4497C11.5603 11.9585 11.9585 11.5603 12.4497 11.5603H16.0377Z" stroke="white" stroke-width="1.5" />
  <path d="M7.55026 3.07281C8.04148 3.07281 8.4397 3.47102 8.4397 3.96225V7.55024C8.4397 8.04146 8.04148 8.43968 7.55026 8.43968L3.96227 8.43968C3.47104 8.43968 3.07283 8.04146 3.07283 7.55024L3.07283 3.96225C3.07283 3.47102 3.47104 3.07281 3.96227 3.07281L7.55026 3.07281Z" stroke="white" stroke-width="1.5" />
  <path d="M7.55026 11.5603C8.04148 11.5603 8.4397 11.9585 8.4397 12.4497V16.0377C8.4397 16.5289 8.04148 16.9272 7.55026 16.9272H3.96227C3.47104 16.9272 3.07283 16.5289 3.07283 16.0377L3.07283 12.4497C3.07283 11.9585 3.47104 11.5603 3.96227 11.5603L7.55026 11.5603Z" stroke="white" stroke-width="1.5" />
</svg>
