<svg width="16" height="16" viewBox="0 0 16 16" fill="none" xmlns="http://www.w3.org/2000/svg">
<g clip-path="url(#clip0_768_24874)">
<path d="M15.682 13.1443L9.77153 1.10311C9.05066 -0.365633 6.94653 -0.368132 6.22563 1.09796C6.22563 1.09796 0.344483 13.08 0.312956 13.1442C-0.310073 14.4145 0.567423 15.9194 1.98671 15.9904C2.05682 16.004 1.33016 15.9991 13.9111 15.9991C15.3732 15.9992 16.3353 14.4536 15.682 13.1443ZM13.9111 15.0313H3.78306L4.78091 13.0136L13.9307 13.0139C15.1793 13.0139 15.3174 15.0313 13.9111 15.0313ZM1.18179 13.5708L6.33434 3.07272L7.45834 5.36236L2.99297 14.4599C2.40274 15.6625 0.597464 14.7616 1.18179 13.5708ZM8.90273 1.52964L14.0676 12.0519H11.817L7.09155 2.41877C6.50314 1.22385 8.31582 0.333448 8.90273 1.52964ZM5.25614 12.0458L7.99744 6.46055L10.7387 12.0458H5.25614Z" fill="#000404"/>
<path d="M8.47959 2.2394V1.94905C8.47959 1.3337 7.51172 1.29705 7.51172 1.94905L7.51333 2.27555C7.55896 2.89621 8.47959 2.84624 8.47959 2.2394Z" fill="#000404"/>
<path d="M1.85017 14.5073C2.28853 14.9457 2.95561 14.317 2.56219 13.8527L2.24957 13.5379C1.79085 13.0792 1.11783 13.7743 1.56497 14.2222L1.85017 14.5073Z" fill="#000404"/>
<path d="M13.5733 13.5379L13.2881 13.8228C12.8556 14.2553 13.4664 14.9211 13.9356 14.5406L14.2576 14.2222C14.7044 13.7754 14.0278 13.0822 13.5733 13.5379Z" fill="#000404"/>
</g>
<defs>
<clipPath id="clip0_768_24874">
<rect width="16" height="16" fill="white"/>
</clipPath>
</defs>
</svg>
