<svg width="16" height="17" viewBox="0 0 16 17" fill="none" xmlns="http://www.w3.org/2000/svg">
<g clip-path="url(#clip0_768_24866)">
<path d="M12.1972 13.1723C12.4571 13.1723 12.6677 12.9616 12.6677 12.7017C12.6677 12.4418 12.4571 12.2311 12.1972 12.2311C11.9373 12.2311 11.7266 12.4418 11.7266 12.7017C11.7266 12.9616 11.9373 13.1723 12.1972 13.1723Z" fill="#000404"/>
<path d="M15.8589 13.0346L15.4926 12.6684C16.0966 11.7553 15.9969 10.5105 15.1934 9.70701L8.12791 2.63437C7.94416 2.45059 7.6462 2.45062 7.46242 2.63437L7.1296 2.96715L4.80033 0.637843C4.71211 0.549594 4.59239 0.5 4.46758 0.5C4.34277 0.5 4.22305 0.549594 4.13483 0.637843C3.97511 0.797562 0.312148 4.46052 0.141742 4.6309C-0.042039 4.81468 -0.042039 5.11262 0.141742 5.2964L2.47102 7.62567L2.13824 7.95845C2.04999 8.0467 2.00039 8.16639 2.00039 8.2912C2.00039 8.41602 2.04996 8.5357 2.13824 8.62395L9.20376 15.6966C10.007 16.4999 11.2516 16.6001 12.1651 15.9959L12.5313 16.3622C12.7151 16.5459 13.0131 16.5459 13.1968 16.3622L15.8589 13.7001C16.0427 13.5163 16.0427 13.2184 15.8589 13.0346ZM1.13999 4.96365L1.80552 4.29815L2.8038 5.29643C2.98755 5.48021 3.28552 5.48021 3.4693 5.29643C3.65308 5.11268 3.65308 4.81471 3.4693 4.63093L2.47102 3.63265L3.13652 2.96715L4.1348 3.96543C4.31855 4.14921 4.61655 4.14921 4.8003 3.96543C4.98408 3.78165 4.98408 3.48371 4.8003 3.29993L3.80202 2.30165L4.46751 1.63615L6.46407 3.63271L3.13652 6.96021L1.13999 4.96365ZM3.13655 8.29124L7.79513 3.63265L8.46063 4.29815L3.80208 8.95673L3.13655 8.29124ZM12.8641 15.3639L9.20376 11.7035C8.65194 11.1517 8.65198 10.2588 9.20376 9.70701C9.75557 9.15526 10.6485 9.15523 11.2003 9.70701L14.8606 13.3674L12.8641 15.3639ZM14.8033 11.9791L11.8658 9.04152C10.9484 8.12411 9.45566 8.12405 8.53826 9.04152C7.61866 9.96108 7.61857 11.4494 8.53826 12.3691L11.4758 15.3066C10.9511 15.5565 10.3031 15.4649 9.86925 15.0311L4.46755 9.6222L9.1261 4.96362L14.5278 10.3725C14.9617 10.8063 15.0533 11.4544 14.8033 11.9791Z" fill="#000404"/>
</g>
<defs>
<clipPath id="clip0_768_24866">
<rect width="16" height="16" fill="white" transform="translate(0 0.5)"/>
</clipPath>
</defs>
</svg>
