<svg width="18" height="18" viewBox="0 0 18 18" fill="none" xmlns="http://www.w3.org/2000/svg">
<g clip-path="url(#clip0_768_24741)">
<path d="M16.8022 9.23314C16.7298 9.08496 16.7298 8.91502 16.8022 8.76687L17.4736 7.3935C17.8473 6.62882 17.5512 5.7174 16.7993 5.31848L15.449 4.602C15.3033 4.52473 15.2034 4.3872 15.1749 4.22481L14.9108 2.71911C14.7638 1.88078 13.9883 1.31744 13.1457 1.43666L11.6321 1.65076C11.4688 1.67382 11.3072 1.6213 11.1887 1.50665L10.09 0.443815C9.47829 -0.148002 8.51994 -0.148037 7.90823 0.443815L6.80953 1.50676C6.69098 1.62144 6.52944 1.67385 6.36611 1.65086L4.85253 1.43676C4.00967 1.31748 3.23448 1.88089 3.08742 2.71922L2.82333 4.22485C2.79481 4.38727 2.69494 4.52476 2.54928 4.60207L1.19894 5.31855C0.447094 5.71743 0.150939 6.62892 0.524718 7.3936L1.19602 8.76694C1.26844 8.91512 1.26844 9.08506 1.19602 9.23321L0.524683 10.6065C0.150904 11.3712 0.447058 12.2826 1.19891 12.6816L2.54925 13.398C2.69494 13.4753 2.79481 13.6128 2.82333 13.7752L3.08742 15.2809C3.22129 16.0441 3.87569 16.5793 4.62778 16.5792C4.70185 16.5792 4.77702 16.574 4.85257 16.5634L6.36614 16.3493C6.52937 16.3261 6.69102 16.3787 6.80956 16.4934L7.90823 17.5562C8.21415 17.8521 8.60657 18.0001 8.99912 18C9.39157 18 9.78422 17.8521 10.09 17.5562L11.1887 16.4934C11.3073 16.3787 11.4688 16.3263 11.6321 16.3493L13.1457 16.5634C13.9887 16.6826 14.7638 16.1192 14.9108 15.2809L15.1749 13.7753C15.2035 13.6128 15.3033 13.4754 15.449 13.398L16.7993 12.6816C17.5512 12.2827 17.8473 11.3712 17.4736 10.6065L16.8022 9.23314ZM6.92277 4.32828C7.97224 4.32828 8.82608 5.18211 8.82608 6.23159C8.82608 7.28107 7.97224 8.1349 6.92277 8.1349C5.87329 8.1349 5.01945 7.28107 5.01945 6.23159C5.01945 5.18211 5.87329 4.32828 6.92277 4.32828ZM5.94037 12.7928C5.83901 12.8942 5.70616 12.9448 5.57334 12.9448C5.44052 12.9448 5.30763 12.8942 5.20631 12.7928C5.0036 12.5901 5.0036 12.2614 5.20631 12.0587L12.0578 5.20718C12.2605 5.00447 12.5892 5.00447 12.7919 5.20718C12.9946 5.40989 12.9946 5.73856 12.7919 5.94127L5.94037 12.7928ZM11.0754 13.6718C10.0259 13.6718 9.17209 12.8179 9.17209 11.7685C9.17209 10.719 10.0259 9.86514 11.0754 9.86514C12.1249 9.86514 12.9787 10.719 12.9787 11.7685C12.9787 12.8179 12.1249 13.6718 11.0754 13.6718Z" fill="#E1110E"/>
<path d="M11.0761 10.9033C10.5991 10.9033 10.2109 11.2914 10.2109 11.7685C10.2109 12.2455 10.599 12.6336 11.0761 12.6336C11.5531 12.6336 11.9412 12.2455 11.9412 11.7685C11.9412 11.2914 11.5531 10.9033 11.0761 10.9033Z" fill="#E1110E"/>
<path d="M6.92371 5.36642C6.44668 5.36642 6.05859 5.75451 6.05859 6.23154C6.05859 6.70858 6.44668 7.0967 6.92371 7.0967C7.40075 7.0967 7.78887 6.70861 7.78887 6.23154C7.78883 5.75455 7.40075 5.36642 6.92371 5.36642Z" fill="#E1110E"/>
</g>
<defs>
<clipPath id="clip0_768_24741">
<rect width="18" height="18" fill="white"/>
</clipPath>
</defs>
</svg>
